<mxfile host="65bd71144e">
    <diagram id="Z5_EiARg9wpO3aPjWqKh" name="Page-1">
        <mxGraphModel dx="840" dy="385" grid="1" gridSize="10" guides="1" tooltips="1" connect="1" arrows="1" fold="1" page="1" pageScale="1" pageWidth="850" pageHeight="1100" math="0" shadow="0">
            <root>
                <mxCell id="0"/>
                <mxCell id="1" parent="0"/>
                <mxCell id="3" value="" style="shape=image;verticalLabelPosition=bottom;labelBackgroundColor=default;verticalAlign=top;aspect=fixed;imageAspect=0;image=data:image/png,iVBORw0KGgoAAAANSUhEUgAAAncAAACECAYAAADyUw38AAAAAXNSR0IArs4c6QAAAARnQU1BAACxjwv8YQUAAAAJcEhZcwAAEnQAABJ0Ad5mH3gAAB7DSURBVHhe7d29drJKFwfwnfdaJIXLKyBXoGlS2abDUprTpUz3NFhKl9YqjXoF4QpcKYL34jt7ZsBhBERURPz/zuI8kY8Bhq/NzABPO4EAAAAAoBP+p/8FAAAAgA5AcAcAAADQIQjuAAAAADoEwR0AAABAhyC4AwAAAOiQCsHdmiZPT/Rkdy8Tmm31KLVtafbC6U3EXE5RdzoAAACAbqtecuetiN+aIrt4RV4Uku/cT3C1Xc9oMkMoCAAAAN1Wr1q2N6Q3j//Y0N9ZpXc9mv5wwDinoe5zFdsZvY98Cn/1bwAAAICOqhfcbdf0HYp/3TG99lQvDqAmsqo0r9p2S7PJSzrsZZKUoNnVq0XjCSL9l7T/kg7itML5izTffYr4z3Akhul5iXWYvZjzmokxE7oqmtNIl+eFzMUBAAAAaCX+QkW51c4To/Go2c7deas4O4632qk++rcbyN9x4MppxODM3+LXLnA5LU9MUTZeNr3dytu5/FtPd2z+IjE1vkpM2A+XqxBb4yfDxToGaobWcAAAAIB2qtfmbhdT4EYUjhxdmjWkuegfvxEtJxN6eRkRF+xR9Esx/6uFny/07/mLRIBE85J62IPx1t8yPXf8SrKgcPgfjUW0tldt/ikjvSEn2BvSfyLKpGhBS7OaOS2ZdKjP8ytKDwAAAKAl6lXLclu5D0/+tZGN7tayStQZfdJv/42+vlakhiq96Qd5MjhSAaFT8KRt0Xjbv40cPnhO6oBt5fO3JelFvpNWyzo+V9xG9IvoDQAAAO5YzeDOwiVhIjbyVj80nw6pl8Rgbp8c+ceQ5j87iuMVBRy98ZO2//IasOWP13seyKEqkMxxdP5ZSXpuEBulkaorK1EEAAAAaLuawd1WxFOyYpPG6RMVROG3Cti2s89Mteh2xg8lvNBSBG/T/8ZiKo67DsOuwvGGb7IkLlos1UMP638kC9osRfMX0RypcE4z0lvLBPHePAAAAOiG6sGdfNJUVWE+PTk0Cl1ZUjbl2G44pxWXtOlxnMVAlbzpV6X0pl/iN5HviGkdn8gL6EtOmFU83pDmcUBu5JMj0n/57qvq28SR+fP0b+lwEcBtOT2uuvVpxPMS6+OLX6v4yq9kAQAAALiypx3XRQIAAABAJ1ymzR0AAAAAtAKCOwAAAIAOya2W5XZrAAAAAHBbdVrPFQZ3dRIDAAAAgMuoG4+hWhYAAACgQxDcAQAAAHQIgjsAAACADkFwBwAAANAhCO4AAAAAOgTBHQAAAECHILgDAAAA6BAEdwAAAAAdguAOAAAAoEMQ3AEAAAB0CII7AAAAgA5BcAcAAADQIQjuAAAAADoEwR0AAABAhyC4AwAAAOgQBHcAAAAAHYLgDgAAAKBDENwBAAAAdAiCOwAAAIAOQXAHAAAA0CEI7gAAAAA6BMEdAAAAQIcguLNst1v9F4CCfQIALgnnFLi2BoO7NU2enugpp5us9Si1cLovNKt0rKhlyJ/flmYvT/S+1D+hAV3eJ9S0563HKc7JS2NZ1xMxzUSkZpD9VFov1TIV4ERqHzT3W7Nr7jgqUrR8Vc8ziXPOKW1y7Px2bHieommyeV/tHGSfD61zWuU0i9djPTHTP3U/uL7GS+681Y52O6NbeRSOzsmYIc13PzTt6Z9wd7q3T/AJwSE/0j8bVC8vezT92dF8KP4czsV0c5GDe+vvkBOW6f3gQIMrcoM4u//qTu6bLXB4fA3Id9oQfDbp2PmtzvmvaBrdf6DOP7vdiga+cyTA48BuRBtjX4qDDY3SAK9qmsXrwYHdZ9/YV+V+YAeQt3X7atnhfxS4ES2WnLGcmeJCNEtKCpKLEvc3ouSXmeiTsEtpysa1bGf0wuNMZulGjMRGftJHKm9AlFTcQIv3iWO2sxcxDzEdeeS5uuctHc1LdYebWT2j9I6PgZGI7USEmPYrz8/87YVjCS7jhGO5CeJmKA5cCj+N5UjOIUanji9edvucUn78qbTM40l0PLJRmm6em659nB07v9U5/5VOs13SInIp+C+J7sWNu7hhjRbL4u2+/qZQpPVh3Ij2ph+iz4b+eKIKaZYv04w+Q5fGr8aNbs5N8a21ps3d4DnJqIj8RZ9iGRFz6Ys+INIoe0ergU9O7kGtxl2MjYh9vMgflw8ax6cB34nNpzT9icVFUN856tvE4RwlFbfUxn3iuDGteD4//1Ff92mD4rzUvQvwMSDOe7rkjk9eVfLzcB44luB8JxzLDeq9jsmNFiTvnzhYS84hehn5+AlHHKxxCXmdc4o4nn7fVHoqMXr61r/jgNzwM72Rvf5xduz8Vuf8VzJN/EuROyYzjiKnL/L7l2L980BeoLX9E6GdVinNE5ephW4f3K3/iTsZl/qO/i2441dxGGgyyvZoZRwIw/mKvMinf+bdDpNp2RH7FwUi/s6Oqw5AEgdYW4r7wXDH+0RvOm3V3dvRvDxVxfw8ax7wsGSJVlIipbu0JKrysdyw3jMNRAD2KyMDbhKSrUYevvHd0Xm8N53g8I3kvVbyOzPv6zt2fqtz/iubZvuXhmQWXQpXibgpePcp8j7kjWaVNKssUyxL95L9tF1Vsqzx4C4cZQ/cp9FGXE+zJQj7UgZBRsl9Mq5NgkN9cfezsbauyvSQRmb6XLQaZccNRyMxllWsCjeDfeJyTs7LE1XNz3PmAY8rr81dUhJVdd9rB1Xdqo5BbtdwjuzN2eFvKGbU8lyyJCfy6ZO+9vvpiow2fe1w+wcqLt3w3Q10dVC2M4uq5TJwA8j32xbng4J94nKunpesQn4CXEUb9z1Z5ZcEXElQZzTol+0aQLVjS4Jy0WUaGubrPQ/0X7YB8f1jaZqyvaKuxjcCu2NpViL2wy9zn5Ntm0P6blF015o2d4Vy69dj+hV3a3bpgNxoZXXxJt4Y5NM7GnnfH+wTN3NSfgJcUFv3ve1ysW+DxY35dQCKm52s3vQnG5RXKUnLO9cbNTeFafIDJ86CxnHOdjiS5jHFwWG7tD+4673SWETEo8wTQSN5AKUPuyR09DwyG9jKp4rUE3tZPZp+eBT57znDoNWwT1yQqs4O01vOLc0+S6qRTspPgAtq474n5u/4EXkf030bUzNw4NIjWS1b1EbsxOPv0Ryc69c0EflZ2qZX5vlhc5RUnTRNuhAg085TtwdNmkK2QfuDO77g8hNGG34Vgyp6HW3EndGPcTCl9Lgi452kmLZsIw/ntPIiXRXXo9exazyizsctXt/QTrfbJ7qH82dFnnzVCefPO9FHQOJ6U+DE/NRwLMH56u17l5TfptV4gEKeP0TgkAx3fuljJ46v9KEH+5xy6vFXrnvHmd7m6bleVXeXlYrKklR+wtjR28Do1Gn89DSz1PT9TyPtEdGqZa9CedpxWaaFFzand0txG4dP6jd4gEPbYZ8AAID7Vzceu4OSuyPM99cAMOwTAADwwO46uJNPyjj799cAXG2fkE9eGcXwBx3anAEAQDtctVqW0wGAQzi+AK4Hxxe0waX2wzrpdKDNHQAAAED31I3H7r/NHQAAAACkENwBAAAAdAiCOwAAAIAOQXBn2W7xyGPXYJsCAMAjaSy44zdnH7zlX3465vCN2vJ1FuYnZk6iPtx8+gcFtjR7eaL3pf5ZhV7+dB3s3x2HbVpGzfv0Za5L5VGyrGZ33jLUzXu4b0X7r72fTUQfk5ouHV6248jXC1mvEMp75ZB13pDnnXQ4XkF0t0peL3XW+UamW7Zf2sNKWMuYXa6aaTakseDO4Q/obf6yB+l3SJ7nUaS+y6JtabmIqn/n7YZ4+clbySdZ+NMl9u+uwzYtwge9Q36kfzbIWxkf0eZu5VE4wgUQTlG0/3Jgpz7VlOxfcbChkXFhW0/EdAN1vOx26hNP+TdFYh7vPh3Mgj/gro+3tDM+K8iB3Wd/P//dakC+08yFNbnA292p6kxzTN1luT2PVua21l36ObeTiX2U33OqfyXM/VJ+Hq5S9KjSGiTnVOtcWi/NBokFO1DQ+zxxsHPJ24kNqcW7wHV3QbzaeZn+/Jv7659yPJLLJDs3EH0SOo3A08OT9GgnLnJ6FJ6vGKZ7xIG7TyudjzWP/cSF8xbbed9fLL+IZzK/OQUex92vSPc84DY9Jl0WV0wv5pPO9uqsPEqp9VX7YV7e7sdJ1zWzPXS6gc5z2dl5cWx6MZ+VOX0yX1ZluLVeK15+vQxyXxDjp+skOh5ZjmP8PnVcqWy98vPy3o/50v3XzPeU3n68ykn+Gqsv08vkm8L9Xc87GJ/zLzNPU076TeJ8yVPUv8ip4x9z6fQaI7dntfNqFcm+q/YrM11jH2VV58v7+8Exn+yfNdOsoe72zZ3qOjuLmTH8U2SGzLic/mkmqWHmyTJ7slDDDy8mOj2ZlpG2fXLK/LbnpdNOJ+bRs/OSv+3hxu/uy9l2D75NYxEEmfM+YdIzGXmUYS5HXt4eyxOVrpnH6iRadXseTn8s/bzhmfUyt7HeH9Lll8OM33K4PgmfMu7R9crLy/t38v6byTPbYR5KPA3n28G0PL4I+jhfebtwZ+Yvb68b5nfRdbGof5FTxz/m0uk1Rm7//XF/IDk+ra5on4xXK7Vv2OkezIfPKWq/U+cyYx+U4+bss5JxLipJ89J4neto8IGKHj0PuBZPl2nGv0Symq5Hr2M37b9dLijy3kiWyq7/kR959GFUh/WmXxSQT/+MEtD86j5VpEpBXFzEO5yLXJuredm2S1qIea+MiYfzFXlRdt6PDdvU1ptO8+d9KzK/Xeo7+reQyduKeeKt9nnam36QRyF98/CK29OcfvgmTpHRL5kV98eGH+O96amHb2LZjN+9ZxpQRGYrgUrjnrWf3q/T9l9dtXrwqb+kLZIjciugr8xAnmZB4699VeteTL9RJM4hRrXrF9G7bnO3/VNfjI65/a6uhmxTW6f9Mu2rR/P6MbN/2bBE8nfeMGb3yxvP7mf+zuuXMP++vJBGxjxll1RvynO53g9EJ276+ERReO7vDYcnH4u96Y9INyJfH9Trf+r6ktcEZzv7pNAN6L/qB8hNNfq0LJ+0k7ZY3JZp8KwysPc6Jlos5QEc/0bpyVYdzPbGV21B0oBCSNIxhaORmNIVsYYxbPgfBe4+vdIqcm774fbJuCYKDqlmZvt5Pzps03YJR2a+im60Eeeqn8zFN5O3lfIkGxyaw6tuz+uyl8/+bao27jn76WPQ7fK4zdHB1bZH0x99Uf74JccIwLazd1qMvwq++zykuZgmc2HlgNu80RB/f9LX/qK/IrGNmgvw9vvCvuPlSCTLxZJhSce/E2Z/c1jZNFXSY1XHY/Z49u9knOvJaXOXE71xW8vRJqC4KLI7w3Cu2oZOJhM5j+zNiMIPBDr+gFZG+8+2a/ZVKE6f3PBbHIhr+g49Sm6Y1QHMd+pb+ttYJ1sRKcf2xhfdscbtHjeC5Ma27+aTVvuTDt8FqAshGpufBdu0VWQeZfI1G9hdRc3t2XpdXa9zyScIHRGkxbkX4gx98yVLecV074tx7sWzmLqRSIltkpneTL8B9r7A3aVxUJV0pmvM6x5wYCUDu6sFVuIa8uFRGIbkfRzOQwV2XKBXUCPUUs0Gd71XGrsb+lv/0SZTWjCkN08coLMlLWhMScFMj+v8TqyeyeADn3x6z7nSD+d8YIqI3Y1oscyJBDhoOZg3Vxs88t16DmzT+1YpT7LVmubws7dnS3V1vc7GrwZyxBEd5wS58rVBdima2leYbJ4R+eQkwYt8qjEi39El7oXTq5tDuU0ewLWDx7si9omzS8xkcwtxjUouCVtxrRJ99qf8NU24hmMV0GaU3f/SEjv7JvlomrfXbHAnNs/zQFx4Pxe6bdYev1Zjs7D6J1Vu5nuO5AmgasmMisgj/12Nb588ZHsjq5ovIYMWMW+jnm89Gd1VnXszsE3vWsU8CY2TXmb42dvzGFVyE6ZFM1uafYb67yu6+nrdIS6xy6nmT+k8y5Sirb/TfYXbN2UClzggV/wXiEBRFgAWTq9vDnm41eYxaRuZ1hh0jF1691D4eJP727klZlzQkG1Xl7YB5/PJC7/e54umwyl98at9kmOeS5oLS+zK0mwJcZAdKOh9GfoJmIMnXvRTKgf99RNXPI3q7Ker7GkOn64zn76Tf6dpZcdTT86I/mlPa97Wk1oyLSOBvN/5T910zANt0+ry1uOaDvPoUNEyleWJfgrMfFWJlWcH02e2Z85yyf0ledLs2HCmxknTlsuih8t9zJ5fwfxPGVcqW6/8vOzOMX+4fumxlNMV5tnBvmI42B7M3NZ509vbxNxProvnVyZv+H4598PMfvYwltffHocl/YqGJV3CHq/qb7v/xcjtX7T97O2cdPb+kiM3XXO/2g8zryOKHk/s0PZ1Jen2+3p+mpfG6dfxxP8TE2fw3UJObwAAAABoSN14rOFqWQAAAAC4JgR3AFVY3xg87B64LRYAALTKVatlOR0AOITjC+B6cHxBG1xqP6yTDtrcAQAAALRQ3XgM1bIAAAAAHYLgDgAAAKBDENwBAAAAdAiCOwA42XbbrUeDu7Y+APDYGgzu1jR5ynuFhP6uYCn+REjJ9wdlP5XWSyveR6HWtXi9eDhendEOyX5p7VOS2u/yhx1j7LONaOr4Wstx35d62N1T696d9Wmavd9Z+07eK4TMT7rZjH3tcL893Mfbcb4HaJ/GS+68lfFtQe5WHoWjY4FOj6Y/yfcH52K67Lfe1t8hJyzTO/iYdSsNaW5/iBhuyCXX/qYl4+/Uyq9fnooDBod8/cH0Jl3/+HJ0XwAOtvi7nHG6v8X8bU4zwIt/KdL7TtoVfgRepPfZp1iOF1P/00hHBokjosz+vaKB79BTc3dQAHfj9tWy8mPRES2WfPXhi6K4EM2Suze+KKm7tczxa5QurCdPNOLviIcj1U+eBMw0RMcTG3eEmZNBzp1ldvCLMcy6SJrT5t2N/plpm9PyOiW/9d/ronGZKl1Il6PszhdqGY9FEGRFd9vlggbjsf5VjdpfRGBHHnmnR4WXd9Hj64VedNAaZS6qJfvnScdj3rFgXOClsmMhb/24t5me6tQseXx7fcrzo2genE8PV4rEH/UX+/mHcZfam36IPhv601nBNwbe2V/1F3n+Lr/grm5AUuImWdy8UPhpnS8BoDVt7gbPyQkiIn+R3L0dL90aznfEx7cqWUhKHEQav2/q7k4e/OLC9K1/xwG56clAnMgdnwbG3aAaXZ/IxUnd8QfiZlEPXw3Id5KTvDltTIG4nL9bZ5jQ/6WPNF2xTO9FQZkYNioaV12AFmPj7ni8IAcB3mW9vpEXfutty7a0XAzo7VX/rGys9pef/6iv+7TBZY6vH/r5Efu6CFpdLq2RV9oq+2fV45Flj4VsSVDFeWXWr+wY5xJLe32qOMxDzqf7qDW4oJxSXtr+idAusaW/jUubTyOwLj1viWDt45ccOa5Dvx86bS5Bj1wav+bkr1wG1IIA2G4f3K3/iTtnl/pGbY87fi0otq8uvVsciou2+bv3TANxcv6N+QdXj+rqKG34xmMXME9m+q5VJauqteyTu7fan/hkutEvydnmKBxX5o99d/wlg8l/+0gEzjakN8+omuULyuAt3SZV9abTk6e5qisdX6mK+2e141ExjwVVEqS3S8V5ZdfvxGO8oovmYWeoErbI+9DBVky/USTud/bB+O6L6L0swJPnWDVuus24alfsJen9CQAc1XhwF46MuzjuRhsK4uyd176Uoa7sxezwt01Vxajl4TooTVZphTTSw8yqmu2fuD91+3TtFkhyPuLiliyD6lRV0iap+4CLcPpumqdcJXtkp2mlZo6vvWr75ynHoz3MIbFZZFpVj4X89Ss4xmu6ZB52gypV9QcrowRUBdaZm14O5iPcmAJc2+0fqLhpkXpywjcaBcs6qIQqkeP+qiqHx9XteJrkBroKKNs9XDXQlfVex0SLpbhMcZUs5VcDtdxNjq8m98+T53XsGIezyTaNurr8aNW2CtZP4vRFyL9vx5cljtamz8cAd6A1be5ugqtW9cXi2IWI29TItnW6cXrveVBazXopTc0HhN4rjWlByzU/JTumO4ztGnf5/TNbRauq9lRJWa15nXCMQw38sIkjjpY4J38zD6IkeHseq0mx8HGZPhRk2S7p3bEegAGAewju1J3e/knGLc0+z69WSZkXC74DlVU2+i7RPjmZDXtl26F9Gy35lOQ1zjBJ1bDZTkUu1w1KEDuvR1x45498LrZ7kDZVZx5fV9g/0weahPVkJIOz/7hAqO68yo7xA1c+33SJzMvDav+U3l5pVjIZbJ9649Sj6VcgDkzHeiJZPSzDr1o5WmAI8GDuILjjqtEVefJVDFy98k70EdCpJfu5hnNaeUYbHoef0hPzSkoPDobzU3fJiWxI8zigjW7jJJ+qvcoZRj/RR75+ikx0ZSdUOAtXzfKb7e6xSraeU48vDoBd49Uhl98/PY/SY260CShO34tWY17HjvHc9Tn9fPOIr0LhdqmR+M93dN4anbrPVXkpMn8/jN9jV/ieuxK9Kf2I7Sbfa5fOR1e1I7IDOPC040YoFj5wcnoDAFwRt49TL6rF9RoAoH489tht7gAAAAA6BsEdQBU5XznIdmgDCQAA7XDVallOBwAO4fgCuB4cX9AGl9oP66SDNncAAAAALVQ3HkO1LAAAAECHILgDAAAA6BAEdwAAAAAdguAOAAAAoEOaC+4KXyVR/xUS/FZ4mYb5OaImyHWxv5l4gtrT80tedX5VTmNLs5ca3148dx0L8Gfa1Jv8ebmy277rwwAAAJrQcMmdR6sdf4Df6FYD8p2Si2AaZHBgYwYpa/oOXQpikUadz9nckvyUzpzOegn/JdIoY6Z/sUBvS8sFf7aVtxZ/QHxAz+mG6/owAACAZty+WlZ+XDr5zmOONMgY0lwEg+lnibZ/tCFcPO+LEfDw9nP75KgBQteHAQAANGSXo6D3eeJg55K3W+mfe/EucGnn8QAex/V2nvhNPK49TfJb/svjqC6dNunnBfs0pdXOS8e3lmHlpekQubsg1v1Z3nzS/iIdY1o1zFgX+VNNn/7m8d1gFyfTcz/9dxC4aVquuRDm8nkib5JlNNNgel5qPHP9rWXS6e3nUZA3afrm8H3+rDxrOUuZaVid6+6X2+46MUxsb50LAAAAp+DrSB23L7lb/yM/8ugtKZGLQqIPrrItqXLk0rw4IBF8yGre+XBNE8enwUpV9cb9hUhTj0vc9kl9jFwOCzY0StvoielGG1W1K4bJKuJ3Y5iRpgh2aDMyqyZDGn2/6ek8CuWwHr2OXQq/9Vjxr4iHXNr8qRS3fxtyx685VcghLegrTSvy/+n58PKFJAIztez9jRgzT9n6G9YTetLr+zOVxUsleZMY0jzN6x+Sk3HfeZJGFarUlddNrIyel0iR5/vzQz+dHnZnTQYAAODuNRzciYAo8zCF6GSwYQZyLvVPrctaf1PoBvSfTqQ3/RChiLZd0sIIHuWwaEHLNIIxqoSH8/3F2Eoz0wZNcilIBjp98UvpvY7J3fzJAGn9vaHxx5jUDLg9VkQDWWdnc3U7LcFIq3S9TFXG+5vRi8zrfYB2PG8uSwa3cuOqtmnmdu76MAAAgKbc/oEKozRI0W2WTsAX1SyH+mmExMygcmSUfnGJ0orEwDTYTB7YOEzTVrCcvWcayABpS38bMc5Q/A6/aS3bYxkllBn5aR1fBuX4+oscEMHGR0Dk/7MfiyjKm0tay4dhHD+iyHfEfBzyo4h8R8zz5YX4KeruDmv4SW4AAHh4t6+WvYDe80D/leBASv8p2UGlGVDqKkPuVkn1al6aVQ3pzYvod7mkBXGDev69ob/ZN4Xem1Hyd1zVZTi+/iIHPqY05JK58NN6Mrksby5FBdFeMi+u5nUDivlvWaXZ5WGolgUAgGa1O7jjUjAKKWnCtl0uKK8pGQ3fyIt8SgqltrPPfQlU75XG7j6NzGs95N8Fr2Gx0iwd1zJ882izWPA7MeSF3ekTLRZJld0JytbLVHU8DrLMdoVleXNABKjnFEGZT4/GvxQNnvdBT9eHAQAANKjlJXdD+i9wKdTVpu80ptw2Zxy0xPzAgxrP+R2I8ZK2ez2a/hhVr86CxkkbP25HJ9+zp4dl2v9l03ySDyxULNXiaC7at6/jkjXxc9+urrLsMtRbfwu/eoZ8cmT9c0nemGQQqKoZk2prfoG0ellvRUbAw9XInlk/3fVhAAAADXracV2chS/0Ob3vCLfx+qS++fDAQ3n09QcAALh/deOxTrS5O6gy5adHH+kFx4++/gAAAJDqTMkdf9OTn1ZU+LNkj1Vq9ejrDwAA0DV147GrBnecDgAcwvEFcD04vqANLrUf1kmno23uAAAAAO5b3XisG23uAAAAAEBCcAcAAADQIQjuAAAAADoEwR0AAABAhyC4AwAAAOgQBHcAAAAAHYLgDgAAAKBDENwBAAAAdAiCOwAAAIAOQXAHAAAA0CEI7gAAAAA6BMEdAAAAQIcguAMAAADoEAR3AAAAAB2C4A4AAACgQxDcAQAAAHQG0f8BruqouPk/iEEAAAAASUVORK5CYII=;" vertex="1" parent="1">
                    <mxGeometry x="50" y="10" width="631" height="132" as="geometry"/>
                </mxCell>
                <mxCell id="26jdtZVYwPwEmjw786Ll-2" value="" style="shape=image;verticalLabelPosition=bottom;labelBackgroundColor=#ffffff;verticalAlign=top;aspect=fixed;imageAspect=0;image=data:image/png,iVBORw0KGgoAAAANSUhEUgAAArgAAAEgCAIAAADQf5fLAAAAA3NCSVQICAjb4U/gAAAAEHRFWHRTb2Z0d2FyZQBTaHV0dGVyY4LQCQAAIABJREFUeNrs3XdcU1f/B/Bzswg77D1liYqIrXULiqPWgVtRLNVWcf8qrVqxT1sftc666qqLOmu1bq1aFRSLE7eigIgoeySsMDLu74/7NE0hBBIooPm8X77acMe5N+fcnPvNuTf3SxUXiQgAAACAKhxUQbOTyeQaLU9RhKIoVdMpVCYAAPxbgUJxccmTp0+Ki0sqKioqKioqKyvlcjkqqAl4enpqHlvIKIpisVgsFouiKGNjYzMzgbmZmZ6eHsIFAABoRFRxkYiiqDsJCWlpr6ytrS0tLQUCAXP6YbFYbDabeY2a+pckJz0PDAzSdC2applwgaZpmqbF5eUFBQUZGRnGRkatWrmjvQAAoDFHFIpLSlJSXgQHBxsZGXE4HA6HQwihKIo53+Cs868yNTWV07R267LYbKaBTHk8U1NTZ2fn2NhYC0sLgampcqsVFuSbW1jqYN2qfOPMyFlJSWl5eTlGzgAA6g4UKIpKS3vl4eFhYmJiYGCAGmkG2gYKyqMLhKI4HI6Xp6ewUCgwNUWl1sSMnL18mWZjY+Pk5ISRMwCA+o4oZGZm+vr68ng8VEfzxAmNF22YW1hkZGbSNI1zXk3FJSXJySl9+/bFyBkAgAaBApenJ5VKcRNcsw4o0I1VFIvFkkql+gaGlRXlmuxBKaGM/npdLhFtYxkEs3mtCKUvK17OMhhPcZxoeSXF0lNThlwu37rtp5KSUrlcLpPJZHKZXC6Xy+Wy//1fLpPJnJ2c5sye2VzDCampqZ6eniYmJubm5jjqAADqGyhQFCWTyXg8HoZem+sERhovUGCzWFKpVNMCpaWxUnEMYTvqWcwoz9tiZMgteDnNzCeOECIVv5SKIqrE+TzBeEPb2epjFGcX52vx1318fDLevCkuLpbJpDKpXCaXstksS0srOS1PSk1uxqrOzs7ByBkAgMaBAvNdkMfjIUpothGFRmxOLlcikWh0d6S86nVJxgZLe79CYSHPnC0nrbOTZkvljkbix5X5a3l8Ewu7Pq8frjNpNb7OogYOGPAmI/N1enpZmdjYyKB3r0A5TWiaFoqEx0+dsraylkqkzRiQSaVSPp/PYrFwyAEAaBYoEEK4XC4CheaLFBrz0oNMJqM1uI1fzuI58W2/fvl0+YO7gounviaE+LYP1LfoO9LLhWU4qCQnWl6VKS6Tct78auY2rc6th08M+375SjNzQVJSCpvD7tm1KzPL3dX16+8WW1s3548vZDIZjnMAAI0DBZqmORxObdcdJBLJ6dOn4+LisrKyWCyWra3t+++/P3bsWELIw4cPDx8+nJqayufz27VrFx4eLhAIFCump6cvW7ase/fuEyZMQC2r/6bbiPco0ISwWKx6/96Prsz9mnC8JfSHW9d26NTlg3FhlhVF5akvXr94nGZgbEzIsLL8hwV5mdb+F+RVJfUpka+nN3vWjK+/+dbZyWnztu2Ojo4uzs6EEH//9h6tWtF0fSOY3l+crnOZy6sHaVTRGDkDANB+REGlqqqq7777LikpqV+/fiEhISwWKysrq6ioiBAilUq3bdv23nvvhYSE5OXl7d27VywWL1y4kBAiFovPnTt39OjRyspK1G9LVvx6lZG+TFhwMzW9raOTq5uHw/WYe8+fpRFaPmBiMLOMsd0YPSN3iqXBdX0Lc/PP/2/Od/9d4uzivHjJso3rfmB+drt29UoNIh65bPKIzhyKktF0WYWsSCwXiaUyGS2T01IZLZPTjx490WLYhrkXB00PANA4gcLhw4efPXu2aNGiDh06VF+Nw1m/fj3zAzNCSFZW1qVLl5jXV69ejY+P//zzz3ft2oX6rd8prNYRhdVr1ixatEjlrEWLFi2KilJ5OqznEIWJ07ycxP8Y24QlnUq1tbcqzC3KzM2L2v5/UqnM3Pp/g0N8Ex8t3pFnq1aTwj/esm27iYnJ0uUrlnz3rabf4+Uy6fZfrzViJctpmsPhYDgBAEDLQEHxa3Lls9elS5c6duwYEBCgck0ul6t4XVhYaGdnx5QwYMCADz/8kBCya9eumsWCRr6IjGRignpFCZqzab2YEPImdWOAn09uRp5HOzdLe4tG2fPegYEnT52WyekrcdeeP0/y8fHWaPUr60f8G/WJAxIAoNFGFIqLi4uKijw8POos4vbt2zdv3vz6668VfTGqtbFGFAghkXPnEppe9Ff1EkIWRUVFLVxYfS2KIn/9gKL+Nz3sWLzv7tWHhJCuHf1ysgqeJb28cSGBmdX6Pe9JUePWzt2S+TKHEMLj89adXlL/NxV37dqTp8/MzEx7dO2maZQAAABvQaDAqHZB98aNGz/99NPatWtN/3pI8M2bN9euXTt9+nQ/Pz/U5r8RKBBC5s6dSxPChGJRUVELa0YJhFB/lcUUWM9oLedN7qDBgabGhtJKaWsPt9Yebsx0rqHeq8ysbVE/DxwamJ9ZeOHMtSmLP67/OxKJRKvWrndwcBAKCxctnK9FnXSburvOZf7c9gkOHgCAfz1QUDy/ttpIgKmpqaGhYXp6uvL0yspKkUikeELwn3/+uX79+pkzZ/bs2bO2DWCAQb16/uph7uefl5eXE0IWfvWVmuUVIwr1qXa5XJ7zOv90aqy9jVWnjm3P/nGtSiJhZrk5O7T18bAyMUlJSL2Z8GjK4ole7d3rH/csXrZMX5+flJy0bdOPhoaGWlSLXCYZ9NGACom8UiKvrJIrXsj/euvpT69pV9s4IAEAGmdEgaKobt26Xbx4MSUlReUFiJcvX65fvz4iIkJNlACNMqLAWPjVV3UvzIwo1G+7LBZrw+/Ljm0/k3H/dWmp2NTa9Luf5xFCrp25eXzrmfZtvMorKuPi7874fpK3v0f9386RY8fvP3gok9NTJ09u17aNYvr6jT+yKDJrZr0e4UzLZadOnWnESmaz2Y34M1QAAAQKhBAyYcKEx48fR0VFDRkypHXr1oSQxMRExdwDBw64ubm5ubm9fPmSmWJtba3d10cECo1W1N/hAlWf7eZnFjy59ayVtUN+ocjd15kQ8vT28xPbf+/+QUBpmdjIyMDU2Cg/u7D+O5D26tWPm7dYW1k52NtPDPv7YY7p6ekxV2IdHO3qWc6NXdMat5IpQng8nlwux4gCAIBmgQKHw2FGqmt2oCYmJqtWrfrtt9/i4+OPHTvGZrMtLCy6dOmir69PUdTz589LSkrmzp2rWD4yMrJHjx7KYxIY6a37BEZR9X8MUV2nQhYtl8vlcpqWE1L30wL+PHvryMYTjg62lhaC5y9efTQkIO3Z670rfu3+fvvy8orEV+lutjbt23id3nXhvUB/voFenQVKJJJvF//Xxtq6pKT4s0nhmZmZzBvMzc3buv0nd3c3uVzajFWtp6cnk8kwrgAAoPGIAo/Hk8lkKmcbGhpOnDhx4sSJNWft3btXfdFbtmxB/TbliAJF0XK5nM1m13P51Cdp7m5OjvbW9x8/55vr27varftia1mx+HzMdUMTg6+2fb572f5bfz4hhJzZc2FExOA6C/xpx85CodDJ2bG4pHh+VBSbzWFzWBw2h8/neXh46Ovr5+RkN2+gIJVKcbwBAGgcKCi+aeHb/1sdKNA0qZJImCGi+iz/MjG9IFtYVCX28HMbOW0wV4+76ui3ygtErp1e/61LpdILFy+Wl5e/ePGCw2KzWWw2m8Wm2GwWJZPJUpJT2GyWq4tr8wYKuPQAAKBxoEBRFPNNC5cJmkXj5XqgCKGlUmn9A4Vvdn/ZmEcSh3PityMtOBoj+nx+fn6+lZUVjjoAAA2694pyMfNNC3Xx1o4oUIqHLcmkUjabXf+rD7pUyXI7e7v79x94enoyTwdBWAwAUK9AgaaJkZER800LXefbSOlBGFRefj6Px0Od1CSXy60sLR3s7a9euWJtY2NlZWViYsJms5m8qSwWq7YEqgAACBTk1tZWDx489PT0ZM4x6C6b/EyvVT5D6q9fQFIURVEsiiWVyRITEzt08EeCRJWkUqmvr29FZUVubl5GRkZiYiJN03K5XPFf/CACAEDF2aa4SMTlcp8+TSwoLLSyssI3rSb25PEjNzc3jVahaSKTy2i5XCaXy2VymqaFIlFOTk5WVpa9nV27dm0VWT2hpr8O6X8e1TjAAQDUBAoURXE4XOablkgkKi4uxjetppSenq7hCMTfARwT0gkEAgd7e1tbG0NDQzabjcAOAAAaM1DAN63mVVZa2qAmVLpJARcdAACgcf09Ri2Xy/Hbh2bB5XJRCQAA0DLhCygAAADUihMbG4taAAAAAJWo8nJxs2x410+bJ02ZjgYAHDOAtkZtQ0uGSw8AAACAQAEAAAAQKAAAAAACBQAAAGgKeNZvyyKRSGbMmKmnp7d+/To8PUmX7dy58+rVq+XlFVwu19jY2MfHJyRkqKurK2qmJX94T58+fe3ataysbC6X6+Dg0KdP7z59+qBm3hY//fTTlStXq6qquFyumZlZ69at+/fv5+npiZpBoNCyxMTESiSSkpKS69evd+vWDRWis/Ly8mxt7T79dLJEIsnJyTl79uzXX/9n9epVNjY2qJwWqKqqavHi/yYnJ/fp03vo0KE8Hi819WVJSQlq5i1SWFhob283efJkqVSan58fF3ctKmpRaOi4kJAQBArQUtA0ferUqUGDPsrKyj5x4iQCBR1naGjIfJvx9fV1dnZesOCr1NRUBAot05Ejvz1//jwqKsrfvz0zpXPnzqiWt46BgaGPjw/zOjAwcN++/fv3H/Dx8VFM1E0Y3G5BEhLuikSi/v37Dx48+OXLl8+ePUOdAE3TBQUF586d5/P5GAVtsW106dKl997rqIgS4N0wevQoAwODS5cuY0RBS3KZrIHbbngJ75jff/+9a9cuBvr6Bo4OrX18zp4564UTg64eMzRNP378eMyYsUz6VoqiPvkk3NzMTHdq4C16p8XFxcXFxW6ubm9v66A3Zj50hKaVq4LDZrs4O2dkvNHx+mnQpQdZw+pOhkNTSU5OzqNHj5b8dzFTLX379d20abNQKDQxMUHl6OAxQ9OkVatWn336KU3TJaUld+/e3b07mqbpvsHBaOuWRiqVEkII9RYfn+iNmQ8dTehqVSGn5TSt6/WDexRaikuXL9M0HbXoa+WJV65cHTx4ECpHN/H19JycHJnXbXx937x+E3M5RncChbeIiYmJgYFB+qt0VMU7pqqqKj399fvvv6fj9YBAoaWE81evxn300UDlGxhPnzodExuLQAH+12dJqij8YrZFoiiqS+fOl2NiUlJSPDw8UCHvjMNHjpSXlwcFBiFQgOZ3//6D4uLi4D59lO9p79mzR/z164mJz1q39kEV6aDSsrLnz5OkMqlIKIy/fuP586TJkyehWlqm0aNHPX7y5L9Llg788EMvL09CSGZmlkQqCRk6FJXzFikrLXuamCiTyfLz8uPj458mJo4dO8bb2wuBAjS/2Cuxri4u1X751qZNG2Nj45jYWAQKOsjSwiIxMfG7xYvZbLahoaGzs/OcObM/6NQJNdMyGRsbL/nv4hMnT968devM2bMsFsvGxrpLly6ombeIuZnZkydPlixZyuVyBQKBj4/34u++bdWqFWpG+zTTcpmsIfd37I3eERb+KRoAcMwA2hq1DS0ZLnkCAAAAAgUAAABAoAAAAACNiNq0fnWzbDgs/NO90TvQAAAAAC06UGjGmxmnz45EA0D9XblypVevXqgHtDWgtqEp4dIDAAAAtNRAoVu3blu2bFGesm3bth49eqhf686dO2oef3b//v2ac1VObOEU+1xz5xvr7URHR9dZny3N23vMKO8DU/M4JNSTSqUURXH+6cqVKw3/TDXuJ1SNx48fOzo6NrxF8MlqmjbF566RA4XXr1/PnvN/v/xyqCGbDw8P37t3r/KUffv2hYeHq1lFJpP5+/vfuHEDUV4D0TS9YMECQsjbVZ9v7zGj2AdFzeOQqI+0tDSpkhYySN40WYKa8lBBb4zPXWMGCmKx+NixY4u+/k9hYWEDNz9mzJgHDx68ePFC0SPcu3dv9OjRe/bs8fb2dnd3DwwMfP36NSHk7t27/v7+EyZMCA4Ovn//fufOnZlVai5JCKEoKjIy0tnZ2dPTMyYmptpGz5w54+fn5+PjM3DgwKysLOVZDx488Pf3X7RoUa9evby8vM6fP1/bVpglv/rqq27duvn6+l65ciUkJKRNmzYzZsyocyuEkN9++83Hx8fR0TEsLKyysrLO5dU4fPhw27Ztvb29e/Xq9ezZs9rKr/kWhg8fnpub27Zt21OnTinqs2ZptdVJc2lpx8yNGzd8fHyqvVZZaYp9UNS8Yus4JDSyZs2aoX89Grlfv36bN2/WugKdnJxSUlIIIYcOHeLxeGKxmBDyww8/zJ49W+V7Vz6oFIVIJJLAwMCVK1dWVVWFhYW1atXK1dV1/Pjx5eXlhBAul7tkyRI3NzcnJydFXanct5oTVR4qOvLJev/9948ePcq8PnbsGLMVlZtQ80lEV9w4ysvFmv47fvz4zJkz465enTx58k/bthUXibT4t2n9apqmaZoODQ397rvvmNdLliyZMGFCQUEBn89/8eIFTdNTpkyZOnUqTdMPHz40NDT85ZdfaJq+fft2q1ataJpWueS9e/c4HM6uXbtomo6Ojvb09GQmMqtkZWUJBIJHjx7RNL169ephw4bRSh49esRms3///Xeapg8ePNi1a9fatsIs+eeff9I0PW7cuLZt25aXl4vFYiMjo8zMTPVbycjIsLKyevnypVQqHTRo0Pfff69yecU+K14oKKa8evVKIBAkJyfTNL1t27ZOnTqpLF/lW8jLy9PT01OuT5WlqayTZhEbG9sCj5nr1697e3tXe62y0hT7oKh5HBLq21oikTCDl9XmSqXSgICA8+fPHz9+vHPnzjKZTNMKVAgLC9uzZw9N0zNmzOjUqVNMTAxN08OGDTt+/LjK9658UClKi4iI+PTTT2maPnz4cHBwsFwul8lkkZGR165de/TokZ6eHrOJbdu2MXWlct9UTqx5qOjOJ2v58uUTJ05kXk+cOHHNmjW1bYIpTeUnEV1xo9AmUBCLy8rLxWWlJY0SKFy4cIE5emia9vHxuXjxIk3TxcXFzJQDBw707duXqSN9fX2ZTKZcmyqXvHfvnqGhoVQqpWm6oqKCoqi8vDxFc/78888DBgxgVikpKeFwOMySikDBxMSEef3gwQNnZ+fatvLo0SNLS0tm4qJFi6ZNm8a89vDwuHv3rvqtREdHDxkyhHldVlZWUVGhcvn6HJ07duz46KOPmInM1xeRSFSzfJVvoebRqbK02uqkGQOFFnXM1BYo1Kw0NYECDgk1gYKeEsW7TkhIaNu2rY+Pz8OHD7WoQIVdu3YxH96OHTvu2LFjyZIlNE3b2dmJRKLa3rvioGJK27JlS58+fSQSCU3TcXFxDg4Op0+fLi8vV3QpxsbG1epK5b6pnNjEgUKL+mS9ePHC0tJSKpVKJBILC4v09PTaNqEmUEBX3Ci0SQpFUVQjDmn06dOnoqLi5s2bbDZbLBYHBQXJ5fJVq1Yx4ypCodDZ2ZlZ0szMjPXPNLu1LWlhYcFms5kuRl9fXygUKlbJzc2Ni4tzdXVl/jQyMsrLy7O1tVUsYGxs/L+rMiwWcxmytq0YGhoyL9hstoGBgeK1TCZTv5Xc3FyBQMC8ZlZUuXx9ai83N9fCwoJ5zefzDQwM8vLyapZf21uoT2kq66R5tbRjRiWNKg2HhBopKSk17wcMCAgwMTFhs9nt2rVrSAUGBQVt2LBBJBJxOJzevXvPmDEjKSnJycnJ1NS0tveufFBlZ2fPnz9/yJAhHA6HENK9e/d169atXr16/Pjxo0ePXrduHSHExMSkWl2p3DeVE5lidfOT5e7u7ujoGB8fL5FIvL29nZyc6nnQVjuA0RU3XPNnj2SxWGFhYQcPHuRwOBMnTmSxWAcPHjx27FhcXJxAINi3b5/ipt+aAcqhQ4dULikSiWiapiiqqqqqvLzcwsKirKyMmWVraxscHHz8+PH672FtW1FD/Vasra0VB59QKCwtLVW5fHZ2dp0bsra2jouLU9w7IhaLbWxsapZ/7dq1+rwFlaW9evWqxd1Z05KOGTabTdM087qkpES7d4RDQlNnzpzhcDgVFRVnzpz56KOPtK5AV1fXkpKSc+fOdenSxc3NLS0tLS4urk+fPmreu/JBxefz7969GxwcfOzYsWHDhhFCRo4cOXLkSJFINGbMmK1bt/br16+e/YPKifn5+brcG48cOfLkyZMVFRWjR4+usytW+UlEV9xsNzP+G3fbHj9+/OTJkx9//DEhpKCgwNXVVSAQCIXC6Ojo0tLS2lasbcnS0tJjx44x94P4+vqam5srVunbt298fHxycjIh5Pbt28wtS+rVf3/quZXg4OD4+PinT5/KZLIpU6bs379fi71i9O/fPz4+nrkba+fOnT169DA2Nq5Zvsq3wOVypVKp4kNbW2kt8z7hlnPMODg4ZGZmikQiQsiRI0fqs/M1ax6HhEbKysrmzJnz448//vjjjzNnziwrK2tIBfbs2XP9+vXdu3cnhPj4+OzatYsJFOrz3gUCgbOz8+7du6dPn56Xl7dhw4Zvv/2WpmlTU1NHR0e5XF7//kHlxJotolO98ahRoy5evHj27NmRI0fWuTMqP4noipvtZkbmX2Pdo8Do1q1b9+7dmde5ubkffPCBp6dnUFDQjRs3bG1tFy5c+OjRIwcHB2YBxYUclUveuXOnTZs2c+fO9fLy8vb2vnbtWrVrS6dPn27Xrl2rVq38/f3j4uKq3cyo2IridW374+Liwiz5zTffREZGMq+9vb1v376tfis0TR86dMjT09PW1nbChAnMhauay9fnwhhz/1SbNm08PT379OnD3CNTs3yVb4Gm6b59+1pYWGzatElNaSrrpHnvUWhRxwxN05GRkV5eXv369Vu/fr2Hh0dtlaZ8NZep+Zs3b+KQqPMeBfY/LV26NDIycs6cOcySkydP/r//+z9NK1DZnj17CCGZmZk0Ta9cuVJPT09xh4H6965c2ueffz5ixIi8vLxBgwY5Ozu7urqOGjWqpKSktrpSeUSpnFjzUNGdTxZN035+fup3Rrm0mp9EdMWNokGPcJ495/8+6NRp7NgxWqyORziDpvCgWbQ1oLZBRy89AAAAQMvUoJsZ1/6wBjUIAADwDmu2NNOEkDbt30MDAAAAtOhAAWmm4W2BK6loa0BtQ9PDPQoAAADQggMFmqbXrFnj7e2tp6fn6Og4Z84cxc9J09PTAwMDjYyM2rdvn5CQgNYC0ClMmmk+n888nM7f3//ChQv1XFfNg9HqmRpYTXLhd7i2lTN6t23bFv0waBkoPHz48D//+ebj8PDpM2b+uGkz84ALrc2fP3/z5s2bN28uKCi4ePFicnJySEgIMyssLGzQoEFCoTAiIoJ5GCoA6JqUlJSKiori4uKoqKiRI0fm5OQoZtV29bPFJvJu+ZSTej9+/Bj9MGgTKEil0u3bd7i7u8+ZPWfYsJCEhITtO3Zqvfnc3Nz169cfOnSoT58+RkZGPj4+hw4dGjFihEQiSU1NffHixdy5c7lc7rRp06olSgcAncLhcEaNGuXu7n7z5s1quZ5rJuRVzs6sMvkvQ5EemtSSIxjQD4M2gQKHw1m79ofw8I8DAjr0DQ7u3TsoMTFR683fuHHD3t7+vff+/vmDsbFxREQEl8t9+PChl5fX1KlTXVxcgoIatBUAeDfIZDIul8vlclNSUgYPHhwTE5Oenj5lypTjx48/f/58/PjxzIOHt2/fzuPxHj9+zCTzrTZXYfbs2Z6envPmzVNZCBBC0A8D0e7Sg3JCM2GhsM40emqIRCIbG5vaZl2/fj00NDQtLS0kJGTs2LFoLQCdJZFIDhw4kJmZ2blzZ4qi5HL5qFGjCCF//PFHt27dmHsIJk6ceOvWraKiIsVaauZu3bo1OTl5y5YtdRaiUwICAmz/EhYWhn4YSANvZkxIuHv7zp3Q0HFal2BpafnmzRuVswQCQevWrYOCgiiKmjVr1rNnz5o4kRoAtAQeHh58Pl8gEKxdu/b48eNmZmZEKc1xbQl5GbXNZdJD29nZMV971BeiU86fP3//Lxs3bkQ/DA0KFG7dur3xx42fffpp2zZttC6ka9euubm5sbGxiikVFRURERFlZWXu7u4FBQXMRCYvBZfLRYMB6BrmZsaysrLbt2/36NGDmahIc6ycyVeRkFexbm1z+Xz+o0ePbt68ySQ2VF+ITrGyslKMKAgEAvTDoH2gcP369Q0bN0757LOePXs0ZPMCgWDBggWhoaGnT58uKSlJSkoaPnx4Xl6eoaGhn5+fQCDYtWsXTdMbN2708/MzNTVFgwGAMpUJeRV5e2tL11stPfRblGC9iaEfBqJdroe0tLSNG3/87NPJXbt2bfgeLF682MbGZv78+ampqVZWVmFhYd988w0za9++feHh4ZGRkb6+vrjbFgBqcnR03LFjR0hISFVVlbOzM/P4BFNT0969e7u4uJw9e7bmXIVu3bqNGzdu2rRpR44cUbOYjkM/DNo8wnn58uXFxSWfTp4kk8uZKdZWVgYGBhoVgkc4g6bwoFm0NaC24e0YUXj+PKm0tHT+gq8UU2bOnNG1SxfUJgAAAAIFsnv3LtLgpFAAAADQ8iHNNAAAANQeKCDNNLwtcCUVbQ2obWh6SDMNAAAALT5Q6Nq1q7+/f32mI+cpgI5AmumW0Bsrt4K5ufmgQYNu3bqFDhmBQh1+//3cl1/OC5v48axZs7fv2FFWVtbAnXjy5ImxsbGrq+v169frnI6cpwA6BWmmm1JtvTHTCk+ePOnVq1dwcPCff/6JDhmBgjoVFeVBQUHzvvxiyNAh8fHX9x840MCdiI6OHjt27JgxY/bs2aN+OnKeAugmpJluGrX1xgw7O7svv/wyMjKSicPQISNQqNWwYcMGDvywXbt2fYODO3V6/8UJhn5IAAAgAElEQVSLFw3ZA5lMdvTo0REjRgwdOvTs2bOVlZVqpiPnKYAuQ5rpf7t6VfbG1YwePfr69etVVVXokBEo1IGm6eTk5MePn3zwwQcN2YPz58+///77JiYmBgYGgYGBp0+fVjMdOU8BdBPSTDeB2nrjauzt7WUyWVlZGTpkHcHRbrU7dxJWrVoll8s7dOgweNCghuxBdHT02bNnBQIBIUQqlQqFwhEjRtQ2XZHzlBAya9asefPm5efnW1paoiEB3lXM+ZvNZvv6+jJppjMyMtSnmWb6DVJXmukhQ4YgzXR9euNqMjIy9PT0BAIBOmSMKKjTtm2bZUuXTJ0yJT09feXKVTRNa1eOSCSKjY0tLCwU/eXWrVt5eXm1TUfOUwBdgzTTTaO2Xrfmkvv37+/bty9FUeiQESiow+fz3dzcevXqOXXqlCdPnzLpWbVw8ODB3r1783i8/41vcDj9+/c/ePBgbdOR8xQAlCHNdGOprddVXqa0tHTjxo0//vjjkiVLCJJQI1CoJzaLTQiRy7UcUfj5559DQkKUpwwbNmzPnj21TSeE7Nu3b9OmTebm5ocPH8ZNtgA6TpFm2svL68SJE9XSTGdmZtacq6BIM62yEF2jptclhHh4ePD5fHt7+5MnT166dKl9+/bMdHTIukDjRzjTNH3gwEEvLy++Hi8rK/vkqVMymWz1qpWKOLSe8Ahn0BQeNIu2BtQ2ND2Nb2YUi8tfv06/dOlSWVmZsbFxQECH4cOHaxolAAAAwLsZKBgaGjCP2kCaaQAAgHce0kwDAABA7YEC0kzD2wJXUtHWgNqGpoc00wAAANCCAwWaptesWePt7a2np+fo6DhnzhxFOspff/3V19fXw8MjKCgoOTkZrQWgU5Bmuok5Ojpeu3YNfS80ZqDw5OnT8E8+2blzV0MKmT9//ubNmzdv3lxQUHDx4sXk5GTmt7yZmZlTp049ffp0SkrKsGHDPvvsM7QWgA5Cmukmhr4XGi1QePHixbp16/X1DRqy+dzc3PXr1x86dKhPnz5GRkY+Pj6HDh0aMWKERCJJSUlxcHBwd3cnhPTu3Rt5yQB0GdJMN2Vkhr4XGiFQKC4uXvPD2kmfhNvb2zVk8zdu3LC3t3/vvb9//mBsbBwREcHlcv39/QsKCu7fv08IOXHiBNMjAIAuQ5rpJoC+F6qH6VqsQ9P0+vUbOn/wQZcuXS5eutSQzYtEotqSr5iYmKxcubJTp04mJib6+voxMTFoLQCdJZFIDh8+zKSZzsjIqC3N9NSpU9WkmVaey6SZPnfuXJ2F6Br0vdAIIwoXLvwhEglDQ8c1fPOWlpZv3rxROevBgwf/+c9/kpKS8vPzf/jhh4EDB+L5TgA6iMkyIBAI1q5dy6SZJoSoTzOtWFd9mmk7OzukmUbfC40fKJSWlh48eHDSpEnMB6yBunbtmpubGxsbq5hSUVERERFRVlZ2+fLlLl26uLq6EkJGjRr16tWrzMxMNBiArkGa6SaGvhcaGijcvHmrrKxs6dJlE8Imfhz+ybNnz2NiYxdGLdJu8wKBYMGCBaGhoadPny4pKUlKSho+fHheXp6hoWGbNm3i4+Pz8/MJIRcvXjQ2Nrazs0ODAYAypJludOh7oRqNRwW6dOns4+NNCKHlcplMtnnLVhtr67Fjx2i9B4sXL7axsZk/f35qaqqVlVVYWNg333xDCOnXr19ERESXLl1omhYIBEePHm2UMQwAeJcoMkRXVVU5OztXSzN99uzZmnMVFGmmjxw5omYxXYO+F6pp6COc/7tkib2d/eTJkzRdHY9wBk3hQbNoa0BtQ9PDI5wBAACgVg0dUPp60SJUIgAAwLsKaaYBAACg9kABaabhbYErqWhrQG1D08M9CgAAANCCA4Xa0kxHR0fzlVAUVVBQgAYD0B1IM930ta38qNx169YxuXzRGyNQ0OZ4GjVq9Jix40LHT2D+NWQPakszHR4eXvGXs2fPBgUFKZ6xCgC6A2mmmx16YwQKGhOLxYSQuXM/X7ZsKfNP682rSTOtWEYul3/xxRfr1q1DawHoLKSZbgnQGyNQqK+SkhJCiKeHh6uLC/NP682rSTOtmLJ3797WrVv7+fmhtQB0HNJMNy/0xjoapmuxDpOAtby8nM/n6+npNWTzatJMK6xdu3bXrl1oKgBdhjTTTSMgIIBJy0kIEYvFvXv3Rm8M2gQKlZVVVlZW8xd8JZVKfVu3/vjjjx0dHbTbvJo004ybN2+WlpYGBASgqQB0E3P+ZrPZvr6+TJrpjIwM9WmmBQIBM0V9mukhQ4YgzXQ158+fV6SA2r59e0JCAnpj0ObSQ4cO/ps3b9q75+fvvv2morJy6bJlFRUV2m1eTZpp5s9z584x9zYCgG5CmummZGVlZfuXaik00RsjUNAYRVEeHh4fTwwrKipKTEzUrhA1aaYVMWzHjh3RTgCgEtJMNxn0xjqrobkemNE/XgPuVKgtzTQjMzNTZ0N7AKgT0kw3GfTGOkubRzgfPXrUwcHBQF8/Ozvn5KlTVVWVa1av1vSuRjzCGTSFB82irQG1DW/HiMKbNxnnzp0vKioyNDRs37796FEjG/jbBwAAAHh3AoXZs2eRBieFAgAAgJYPaaYBAACg9kABaabhbYErqWhrQG1D00OaaQAAAGjxgULXrl39/f3rnI5spwC6Q5FmWl9f38zMrF+/fsnJyfVf/c6dOxqlk66Nrv1aslqvy7QC55+uXLmC3hiBQt3evHmzfceOz+dGTpka0cCdePLkibGxsaur6/Xr19VPR7ZTAF2TkpJSXl6ekZHh5uY2a9as+q/o7+9/48aNBm5d1zJW19Ybp6WlSZX06tULvTEChTrExMRELfqaw+ZMGD9+3pdfNHAnoqOjx44dO2bMmD179tRnOkG2UwAdY2BgMGLEiJcvXzJ/7tmzx9vb293dPTAw8PXr14SQqqqqsLCwVq1aubq6jh8/vry8/P79+507d1Y5ixDy/fffOzs7+/v7nzlzRrGVmsUqZ6w+c+aMn5+fj4/PwIEDs7KyCCEPHjzw9/dftGhRr169vLy8zp8//7bXs5petzbojREoqJCamrpr1+7vvv3mk0/CO3YMqM/gnhoymezo0aMjRowYOnTo2bNnKysr1U9nINspgE4pLS3ds2fPkCFDCCGFhYVTp079/fffU1NTvb29ly5dSgg5efJkdnZ2SkpKamqqnZ3d3bt3FevWnJWYmLhy5cpbt27du3dP8QR6lcUqMlZzudwJEyYcOHDg2bNnffr0mTFjBiGEzWY/fvy4e/fuV65cWbx48eLFi9/qSlbf69YGvTECBRWOHz9haGi48cdNkz/9bOHCqEePHzdkD86fP//++++bmJgYGBgEBgaePn1a/XTG2rVrIyPxowmAd1+bNm0EAoFAILh79+5nn31GCDE3N8/NzXV3dyeEBAYGpqamEkJsbW0TExPPnj1bVVW1evXqbt26KUqoOevKlSs9e/a0tbWlKCosLIxZTGWxChcuXOjcuXPbtm0JIVOnTj116hTzsy9DQ8MBAwYQQnx9fdXnwm351PS6Hh4eitsRqn05RG/8ztPmgUuPHj3y9vb6aOBAHo935crV5ctXfP/9MmcnJ+32IDo6+uzZs0xaWKlUKhQKR4wYoWY6QbZTAF3y5MkTR0dHmUx28eLFHj163Lt3z9bWdtWqVcw4v1AodHZ2JoR079593bp1q1evHj9+/OjRo5VHwmvOKiwsNDMzU8QHzAu5XF6zWIXc3Ny4uDhXV1fmTyMjIybhpCJ9FIvFetufQaem101JSXF0dKy5CnpjBAoqVFVVlZaW+vt3aNOmjUwmc3Nzu5Nw58qVK2ETJmixeZFIFBsbW1hYyOPxmEPT0dExLy+Py+WqnG5lZUWQ7RRA97DZ7P79+9vZ2cXHx0skkmPHjsXFxQkEgn379il+lTBy5MiRI0eKRKIxY8Zs3bq1Z8+eitWrzTIzMxOJRMysnJwc5sWhQ4dUFqsYlggODj5+/LjyxPz8/HemhmvrjRURlUrojXWBxpceuFwuh8MpKytl/qQoysLCUiQq0m7zBw8e7N27N3NcEkI4HE7//v0PHjxY23RFDItspwA6RS6XX758OSUlpV27dgUFBa6urgKBQCgURkdHl5aWEkI2bNjw7bff0jRtamrq6Ogol8sV69ac1bVr16tXr2ZlZclkMkVAoLJYRcbqvn37xsfHM7/PvH379uzZs9+xGlbf69YGvTECBRUoinJwsH/y5Cnzp0Qiyc7OtrO11W7zP//8c7VodNiwYXv27KltOvMa2U4BdAdzddzY2HjOnDm7d+/29vYeM2ZMXl6el5fXiBEjli5d+urVq6ioqNDQ0ISEBFdXV3d395KSkoiIv3+2XXNW+/btZ86cGRAQ0KZNm+7du0ulUkKIymIVGatfvXq1e/fuESNGeHh4TJkyZfTo0e9YPavvdV1dXZWfo7Bs2TL0xrpDm0c4x8bGbtq0eeyYMW3btjl3/sKtW7d+WLPG3NxMo0LwCGfQFB40i7YG1DY0PW1uZgwMDCwqKjp37vyR335zdHD4z9eLNI0SAAAA4J0NFAghQ4cOHTxoENJMAwAAvNuQZhoAAABqDxSQZhreFriSirYG1DY0PaSZBgAAgBYfKCDNNABUo0gzzefzDQwM/P39L1y4UM911eSGrjOvdLXF6rn8OwNppqGhgYJIJBo1avSoUaPHjB0XOn4C8+/XXw83ZCeQZhoAapOSklJRUVFcXBwVFTVy5EjFgxQJIbVd/dS13NCNCGmmoRECBWNj4+XLv1++/PtlS5cs+e/i0aNHsdns9u3bN2QnkGYaANTjcDijRo1yd3e/efPm3bt3/f39J0yYEBwcTAg5fPhw27Ztvb29e/Xq9ezZM/LP3NA15ypIJJLAwMCVK1eqLEQ3Ic00NEKgwGazW/3Fzs7ujz8uDhk82NvbS+s9QJppAKh/d8HlcrlcbkpKyuDBg2NiYtLT06dMmXL8+PHnz5+PHz/+448/Jkq5oWmarjlXYfbs2Z6envPmzVNZiG5WL9JMQyMECsrOnDkrl8uHDBnckEKQZhoA6iSRSA4cOJCZmdm5c2eKouRy+ahRowghf/zxR7du3Zh7CCZOnHjr1q2ior9Tz6iZu3Xr1uTk5C1bttRZiO5AmmlQiaP1mmKx+Pdz50aPGqmnp9eQPUCaaQBQgzktsdlsX1/f48ePm5mZZWRkmJmZsVgsQkhubq7i0jhzz2NeXh7Tb9Q2lxCSnZ09f/78IUOGcDgcNYvpGqSZhkYOFK5cvSqTSZUTuWoBaaYBQD2VpyiKopgX1tbWcXFxim8vYrHYxsZGMWaucm5paSmfz797925wcPCxY8eGDRtW22I6Vc9IMw210f7SQ3x8fMeAjvr6+g3ZPNJMA0BD9O/fPz4+PiUlhRCyc+fOHj16GBsbK3JDq5xLCBEIBM7Ozrt3754+fXpeXl5ti+kUpJmGRg4UhEJhcnLKB50/aODmkWYaABrC0dFxx44dISEhXl5eJ06cYB6foMgNnZmZWXOuQrdu3caNGzdt2jSVhegapJmG2mj5COc7dxJWrFix6ccfzcwE2m0Yj3AGTeFBs2hrQG3DWzOikJ7+isfjaR0lAAAAwFtBy5sZhw8fHjJ0KNJMAwAAvNuQZhoAAABqDxSQZhreFriSirYG1DY0PaSZBgAAgBYcKMjl8lWrVnl7e+vp6dnZ2U2ZMiU/P5+ZlZ6eHhgYaGRk1L59+4SEBLQWgE5BmummlJ+fT1GU8mOmoqOjmbRb6I0RKGisqqpq//4DM2fNnjT50+8WL37+PKkhezBnzpydO3du3bo1Pz8/NjZWJBL17NmzoqKCEBIWFjZo0CChUBgREYHUZAC6CWmmWwL0xggUNLNnz54rV65MDAuLWviVubnF8hUrCgoLtdt8enr6tm3bjh49GhQUZGxs7O3tffDgQYqioqOjU1NTX7x4MXfuXC6XO23atL1796K1AHQW0kw3I/TGCBQ0dudOQp8+fTp1er9Vq1aTJ31SWVnJPPpUC3Fxcd7e3r6+voopbDZ75MiRly9ffvjwoZeX19SpU11cXIKCghITE9FaADoOaaabBXpjBAoas7a2vn//flVVFSHk+fPnbDbb3c1Nu82LRKKaj/+0s7MrKCgQiUTXr18PDQ1NS0sLCQkZO3YsWgtAZyHNdDNCb4xAQWMREVNLS0sjv/hi585dGzb+OH36NCapo3YxR0ZGRrWJWVlZVlZWAoGgdevWQUFBFEXNmjXr2bNnipscAUB3eHh48Pl8gUCwdu1aJs00IUR9mmnFuurTTNvZ2SHN9N8nAxaL/PO2D4lEwtQPemMEChrLz88Xi8V9g/vy9HgsFuvKlavM6IIWevbsmZKScu/ePcUUuVz+22+/9e3b193dvaCggJlI0zRN01wuFw0GoGuYmxnLyspu377do0cPZqJymmnFSV2RIVr5q4jKuXw+/9GjRzdv3jx27FidhegIgUBgYGCgfB35yZMnzs7OhBD0xggUNCOVStev3zB8+LAhQwaHTZjw/bKlz549u3DhD+02b2NjM3fu3JEjR8bExJSXl7948WLixIlcLjcsLMzPz08gEOzatYum6Y0bN/r5+ZmamqLBAEAZ0kw34ohCeHj43LlzU1NTKyoqjh8/vmvXrsmTJxNC0BvrOI1zPQiFwuLiYjs7e0XAbmFh0ZBhuuXLl9vb28+YMSM1NdXc3DwkJCQmJobJib5v377w8PDIyEhfX1/cZwsANSkyRFdVVTk7O1dLM3327NmacxUUaaaPHDmiZjHdsWbNmqioqK5du4pEIl9f3/3793/wwQfMLPTGukzjRzjTND13biSbzQodN87IyOjWrdsnTp788ovIDh06aFQOHuEMmsKDZtHWgNqGt2BEgaKoqKiFP/+8Z936DTKZzNbWZlpEhKZRAgAAALybgQIhxNLSMjJybgOTQgEAAEDLhzTTAAAAUHuggDTT8LbAlVS0NaC2oekhzTQAAAC04EChtjTT0dHRfCUURSme+AEAugBpppuSmjTT6I0RKGisvLx8y5at4Z9M+mTS5A0bNhYXFzdkD2pLMx0eHl7xl7NnzwYFBSmesQoAugNpppsdemMEChpbv37948eP/2/O7Lmf/19WVtby5StomtZu82rSTCsPOXzxxRfIgA6gy5BmuiVAb4xAoV7y8/MTEu5OmDDe39+/Xbt2U6dOSXv16snTp9ptXk2aacWUvXv3tm7d2s/PD60FoOOQZrp5oTdGoFAvZWViQojiQeguLi5sNjvjzRvtNq8mzbTiz7Vr10ZG4vcRADoNaaZbAvTGCBTqxd7ezszM7NSpU8XFxXK5PCMjk81mi8vLtdu8mjTTzOubN2+WlpYGBASgqQB0E9JMN9HJoPY00+iNEShohsvlRkbOzc7O+WzK1LCJH/93yZKqqiqtM4mpSTPN/Hnu3LmQkBC0E4DOQprppqEmzTR6YwQKGvP29l6/ft3OHdt/3LhxzJjRhBBvLy/tNq8mzbQihu3YsSPaCQBUQprpRhxRqC3NNHpjHcfRek0jIyNxefmJEyfbt2/v4OCgdTlq0kwTQjIzM3UwtAeAekKa6UakJs00emNdps0jnPPy8jIzM589e3bx4iUjI8OohQu1uPSARziDpvCgWbQ1oLbh7RhROHr06I0bN50cHYcMHty7d5Di2z8AAAAgUCBTp06dOnUq0kwDAAC885BmGgAAAGoPFJBmGt4WuJKKtgbUNjQ9pJkGAACAFhwo0DS9Zs0aJs20o6PjnDlzysrKmFlSqXTevHksFotJPM1IT08PDAw0MjJq3759QkICmlDXqEk9jANGd9q6TkgzrV1th4eHK0+cOnUqRVFSqRSfLwQK9ZWe/nr69Bn79x9Qnnjy1KmZs2aFf/LJ8hUrlQ+gepo/f/7mzZs3b95cUFBw8eLF5ORkxcO/Ro4caWBgwDxYVCEsLGzQoEFCoTAiIgJJzHSWytTDOGB0p60ZSDPduAwMDK5cuVJRUaEIHS5fvqyvr48OWdeVl4vr86+gIP/Agf2jRo0aMmTIjh07ysvFZaUlxUWiI0cODx48eN++vVdiY6ZNi/jss88KC/KLi0R1/tu0fjVN0zk5OTwe7/bt2/RfiouLt2zZUlVVRdP0vXv3aJpms9l5eXnM3BcvXjg4OMhkMhp0T2xsLE3TEomEEPL69WvF9Pbt2584cQIHjO60dUJCQvv27cePHx8YGEjT9K+//tqmTRsvL6+ePXsmJibSNB0SEkJRVJs2bdLT02vOvXfvXqtWrWiarqqq6tWr14oVK1QWolhM8eKdr209Pb0JEyb8+uuvzPQzZ86MGTOGzWZLJBJ8vnRZfUcU4uKuxcdfnzNnjrW1tXLYfurkqe7duw0ZPLhDhw4zZszIysq6fedO/cOUGzdu2Nvbv/fe3z9/MDY2joiI4HK5hBB/f/9qyz98+NDLy2vq1KkuLi5BQUGJiYkI9YBJPYwDRnfaGmmm/72rDyNHjty/fz/z5y+//DJ69GjFsA0+X7j0UId+/fquWrWyY8d/5A3Lz88vKCxs374986ezk5O5udnzZ8/rv3mVaabVL3/9+vXQ0NC0tLSQkJCxY8eiCXWZcuphHDC609ZIM/3v+fDDD2/evCkUCisqKmJiYgYOHIgOGeobKChytSkTCoWEEIFAoJhiYmIqEonqv3lLS8s3b97Uf3mBQNC6deugoCCKombNmvXs2TMt7oqAd4DK1MM4YHSnrZFm+l/C4/EGDRp05MiRM2fOBAcH8/l8dMjQCL96oAilPp5Qo2vXrrm5ubGxsYopFRUVERERih8+VOPu7l5QUMC8Zq6dMGPOoGtUph7GAaM7bY000/+e0NDQ33777fDhw+PGjVO/JD5fCBTqxoT2oqK/hxCKikTKAwz1GSFYsGBBaGjo6dOnS0pKkpKShg8fnpeXZ2hoqHJ5Pz8/gUCwa9cumqY3btzo5+enRT4q0B04YN55SDPd6Hr16vXy5cv79+/36dMHny9oaKBgaWlpbm724MED5s/Xr98UFgq9vL00KmTx4sVRUVHz58+3trYODg7u0KHDwYMHCSEFBQXM76dlMpmjoyOfz2d+FrVv375NmzaZm5sfPnx47969aEJg4IDRTYo0015eXidOnKiWZjozM7PmXAVFmmmVhejuWYHFGjRoUHBwMJvNxucLiBaPcJ41a3bnzp3Hjw9lHuF8/vz5PXv3jQ8NdXR0OHDgYJVEsmL59/UcfTI2QewJGsCDZtHWgNqGZggUiotE8l14MgkAKH2nnLQclQAA/+sQUAUAAACAQAEAAAAQKAAAAAACBQAAAECgAAAAAAgUAAAAoEWiiotEqIV/1d7oHdNnR7bY3du8Yc07We1h4Z/i2AMAaDgOqgDevXPq3ugdaFYAgEaBSw8AAACAQAH+fTRNp6SkyOVyVAUAgM4FCsqZoGubonVRDV/y39tbZaHjJyj+4dCpqby8/D/ffCuRSFAVAAA6FyiQf+ZwYs67WmR10nTFRowV3rEcVG/evJk5c+bu3btxEAMAQIsIFJpyLKEZN/e2KCsre/XqlVQqxUEMAAD/Ho1/9dAsp+3Y2NjAwMCmXLGJFRYWrly5Mi0tTSKRtGrVqk2bNjExMWVlZf379588eTJFURkZGVu3bn3+/Lmdnd1nn33Wtm1bZsWTJ0+ePHkyICDgu+++W7BgAXOLQNu2bWfPnm1padm4O5mbm7vtp5+Sk1NMTU2//eY/Eolk585dqS9fOjk5TZr0ibOTk2LJgsLCWbNmH9i/jxCS9urVsmXf/7Rtq0QiWbrs+6ysrMrKSl9fX2cnp7hrcWVl4r59g8eHhirmisViFxeXWTNn2NjYSKXSn7bvuHPnDkVRE8PCevXqiU8sAECLDhSa8ct9c8UKtd2OoDydOSM2hFgsfvLkiZWVlbOzc0JCQmJior+//+vXr0+cOOHn5+fv7//dd98VFBR07tz53r17//3vf3fs+N/P/5ydnb29vV1cXAghpqamnTt3zs3NvXfv3t69ez///PNGPFBkMtmKlav8/dtHTJ1aUlJiamo6f8FXAQEdPvvs0z/j41esWLH2hx/UlyCXy5OSkpYv/16fz9/446bnSc8XzF8gFou/X768S+fODg4OSUlJy5YuMTAw+PXwkeif98yf9+WdhIRXr9JWr1pFUYQQCh9XAICmp8Glh1MnTzRXlNDsYUrT8PPz+/bbbz09PQkhUVFRU6ZMIYQkJyc/evQoKytr0KBB06dPnzBhglgsfvDgAbOKv7//7Nmzhw4dSgj56quvIiMjlyxZYmxs/OLFi8bdt+TklNLS0vGhoVZWVu7u7i9epJaUlIwdM8ba2npYSAiPp/fw4aP6lGMmEFhZWXXr2oXP13dycvT29vL08Hj1Kp2Za2FhYW1tPeijgcnJyYQQfT6/uLikuLjIzMzMzEyAjysAQIseURg8ZKh24UJgYKCxianWcYby1gkhJcVFWqzYwK03JXNzc0JIRUUF86K8vDwnJ4cQcvTo0aNHjzLL5OfnW1lZKa9VVla2du3ahIQEmUxGCDEyMmrcvSooyLcwN2exWIo/LS0s2Gw286e1lVVBQb5iYYpQhBCapilK9TCAoaFhRUW54nVlZaXyXGMTE7FYTAhp3779oI8+Wr5ipZOj4+TJk2xtbfGJBQBouSMKzElau2F8rVdUPtmXFBdpFyVoulZLoDjL0jQtEAgIId27d1/2l+7du+vp6RFCSktLmeXPnDlz8+bNYcOGLVu2zMzMrNH3R2BmVigUMlEIIcTc3CK/oEDxZ25enoWFpVIcYEAIKSoqUvsG//Fma1vso48Gbli/3sraavsOPGwRAKBljygojxBoN5iv3Ypan+wbJUpQvv+gce9LqL+AgABzc/M///xTKBQaGBgIhcK1a9caGRnx+fyrV69WVFQYGxsz37aTk5PZbHZVVdQoUMQAACAASURBVBUTRjQiby8vHo+3d9/+Dwf0l0ik9vZ2xsbGvxw61Dc4OP769aqqSj+/diwWi6Koly/TfHy8nZ2cjp84OeijgcLCQq03mpeXJ5VKzc3NHewd0l6m4eMKANDSRxSUT/lNs2LzRgktBJ/PX7p0qZ+fX3Jy8sOHD3k8nkQi4fP5s2bNsrCwuH379ps3bwYOHNi1a9ekpKRff/2Vw+H4+Pg0ckTJ4SyYP+/N69cLvlq4dNmy3NzcL7+ITHuZtuCrhffvP5g3bx6Px+NwOAMHfrjtp58IIRERU5OeP4/84sut237y8PDQbqMvUlO/+fa7Tz+bcuXqlfETxuPjCgDQ9DTIHmlsYlrtvFtzitZFNXzJf29vGzii0PKzR76TSaGQPRIAoKlHFGqeZbU+79Z/xUbcxLsxugAAANCUkGZaA015XwIAAEBLgOyRAAAAgEABAAAANIdLD01h84Y1LXn39kbjEQUAAKCaBr96AAAAAF2DSw8AAACAQAEAAAAQKAAAAAACBQAAAGgK+NUDwFtPJpNrtDxFEZUZwGtLCw4ACBRAM8XFJU+ePikuLqmoqKioqKisrJTL5agWaC6enp6axxYyiqJYLBaT89PY2NjMTGBuZqanp4dwAQD+8RXi7fp5pCJLtdbpKxtaXxR1JyEhLe2VtbW1paWlQCBg+lkWi8Vms5nXOKqgKSUnPQ8MDNJ0LZqmmXCBpmmapsXl5QUFBRkZGcZGRq1aueMwBgCMKGg7llBSkpLyIjg42MjIiMPhcDgcJnpgOlZ0r9D0TE1N5TSt3bosNps5bk15PFNTU2dn59jYWAtLC4GpqUYHc1VVFY/H+1ffplAkMhMI0NwACBRaNIqi0tJeeXh4mJiYGBgYoEKgpdA2UFAeXSAUxeFwvDw9hYVCgalp/VcvKirS1zcoKioy1WQtjUgkEksLy4qKci6Xi9YGQKCgTnNdcVDIzMz09fX9t788AWh2pm+8aMPcwiIjM5Om6XqOKBQVFZmaCjgcDo/HEwoLzczM/o2xBEsLS5lMxuFw8wsKLC0s0OIACBRqpcU9CsXFRTt37Xz56lXnTh8MGTzEyMio2gJisfj4ieM3bt10dnaaHP6pmVmtw5tcnp5UKsXdXtDyBhToxiqKxWJJpVJ9A8PKivI6FxaJRAKBGZvNlkgkHA5HIDArLCw0Nzdv3HdnJhCUlZVyubyystJ3MkpgbhORy+U125G5/0lxcRPQlAgU/hU/7dzO43L79++Xmpq6bMWyhfMXKscKZWVly1cut7SyHNC//4sXKdt3/TQvcl5tRVEUJZPJeDweblqEloOiKNJ4gQKbxZJKpfUpUBElSKVSiqKkUimHwzEzMy8oKLBo7NM5n89v3rGE8vJyHo/HZrPrPE9kZ2fb2NhQFMW8YLHqeFaNVCotLBS+ycgQCoVSqVQikUilUkIIh8PhcrkcDsfMzMzRwcHc3Iy5I+qdFxd3TSaTBQb2arItHjnym6nAtG9wcAPLeVua8tLlyzwur0eP7hp8f3jnD7vMjEw3d7fCggIPDw9XF5flq1aUlpb+HSWsWm5vb9/ap7VQVOjm5p6Zmam+NLlczuPx/u0o4fHjxw8fPsQpEOr7Pabx/nG4XIlEUufdkdWiBOZSBRMrmJtb5OfnN/p7bPQoQSwW/7R9e8lfvYH6T/2WrdvE5XUPsVRVVR385ZBMJlO8qHOVnNzcx0+e6Ovr+/r6duzYsVu3br179+7du3e3bt06duzo6+urr6//+MmTnNzclnwEJicnp716pX5K/U9jT54+1XSthVGLdu3ard3O37p9Kysrq+GV0OxNWc86v3w5Jikp6V0eUdDiHoX27f1evkzz8vLKzMxwdXOjKNaK1SsWfLmAELJi1QpHB4dWHh5v3ryxt7N/nvS8XTu/Ogvkcrn1DxSio6Pt7Oz69++v0T7fu3dPIBD4+fkRgHpFCo156UEmk9FqnwtSLUqorKzMz8+3tLTU09NjYgULC8u8vDwrK6tGfIs5ubk21tYNKWH9ho3KZ+7p0yLatWunz+c3pMyDvxzi8Xgjhg/TbnW5XJ6Tk+vi4uLi4qL4BsL8lxm7pmnaysqKx+Pl5OTa2dqqHJ9YtXrNvXv3lKcMGNB/YlhYUx6A6zdsCAoMcnVxUTOlIXbu3BV37VpVVRWXyxUIBD4+3n2Dgz08PBQL2NvbW1pZNuNHsFGa8v79+ytXrZ4zZ/YHnTr946vjkyfLln0/c8b0rl27atQKDSGRSM7+/nt8fHx2ds67f4/CqBGjv1/xvZ6enpurW3Z2lnsrd4qilq9cTlGUo5OTp6dHRsYbR0fH1NTU3Jzcr+Z/pbY3pjkcjsrrDr/++uuLFy+Up7z33nt9+/a1sLAQCASajkDgx5ag0dHSiPco0ISwWCw1DxATCoVmZubKUUJpaYmDg31+fj5NG/P5fIlEwuVyLS2tcnNzrRt2alf+pm5vZy8Wl+np6TWknBHDh1la/u90oqen16Vz54aUlpuXV1BQIJPJtP7FB02ToqIiNzc3PT29amcOxcdfT0/P3Nw8PT1dTSO7urh8/PHHij/Nzc3esYO8UCi0s7UNDw+XyqQF+QXX/vzzm2+/GzNm9JDBg5kFZs6Y3uyxesObsqCwkBCyf/+BjgEBissTNE3v3buXEFJUVNxkb6eqSrLs++9TUlKCAgMHDxr07l/0MjAwWDBvwfKVy2maeHp4ZGdneXh68Hh6hNCuri6ZmZn29g7Jyclv3rxZMG9BQ370aGNj07dvX8WfJiYmhJAhQ4bgTAbvDJVRAnNHgqWlZV5eHk3TfD6f+eZnZWWdk5NjY2Oj1VbMlMcS7O3sZTIZj6eXlZ1tZ2v796law1iEz+cbGhoqvjBt/HHTtIipXC73yG9HhUJhZWWllZXVRwM/FAgEhJC8/Pxzv58TioS1vYWHDx76eHuXlJY+fPhIoyu+SqeQ/13NVHPbE4vF4vF4crlczRcHfQN9b28vVd+srpw4ebKgoMDe3i503DjFIOWx48fj468XFhbKZLJhw0KGDhmyb//+u3fvFRYWUhTVyt09MLDX1bhrKSkpFEW9//57kydNYn6YGhd37dfDh4uKivT19Xv27DFm9GjF+ey3o0d/O3qUEDI+NPSjjwbWnELT9B8XL54/f6GwsNDJySl03DgfH2/mRHji5Mk//rgoFoudnZ0LCwpUjkUZGBoo3mPPnj0O/vLLL78c8vbyZiZGLfra3c1t8uRJhJDrN24cPXosNzfXwMDgww8HMMHE/gMHEhLuFhUVSaVSZ2fncePG+rZuXXMrKt/g1m3bnj17vm7tD8wyV6/G/bR9+0/btiqfLxqlKUVCkampaVlZ2eXLl/v168dMZL7TW1paFhUVqdnJ2lrh6tW44ydO5Ofnm5qYjJ8wvvMHHxBC7t2/N2PmrJKSEjs72zGjxwQEdKi2J8eOHUtKSlowfx5zzOjE3TGGhoYL5i1YsWoFiyKenp7Z2Vn29rYUi5WTm2NnZ5+UlJTxJmPBlwsUPYh29PT0nJycqk3cvXu3nZ3dgAEDCCGXLl1KSUkRi8VVVVUWFhaBgYGKoTOapq9fv37nzp2qqipra+vi4uJ/7yfp8O5RM6Kwes2aRYsWqZy1aNGiRVFRKr4Z1V6g8hWHioqK0tISxRd0QoiVlVVubq4iVuDxeBYWGo8GV1VJLC2tJBKJUFjIhCA21tYlJcU8nl5xcZEiSsjJybG0tLKzsy8rK+Pz9RpYe5mZmRPGh+rp6f0Zf/1yTOzwYSEymez4seOtW7ce0m5wdnZ2Rkb1u5ckEumz58+HDwspLi6+cjWuW7eudd63qPJrKEVRHA5HzfChYgE1Iwo0TStfVWFuujx37vz+AweGDhni6emRkHB3xcpV8+d9yfT7d+4kmJqYTJwYJpfJzMzMCSGJic+srKw+/XRyubj8l0OHtmzdNmLE8I8GfpiZmXXg4EFXF9cBA/oTQlxdXSd9Em5oaPjy5ct9+w9YW1sr7gHsGxwcHBxMCFH8cKzalNOnz5w4eXLcuLEO9g4XL15csXLl2h/WCASCw4ePnD5zJiRkaCt391fp6SdOnKzf4NDwixcvxcTGVIuQ8vPzN23a/OGHAz7o1KmsrExfX5+Z/vRpooW5+SfhH1dUVP75559Lly5buPCrNr6+1cdmVL1Bf3//q1fjFFHvs+fPWrVqVe1bZaM0ZXFxsZWVVUBAhxMnTwUFBXG5XJqmjx47HhzcJzs7R/TXY5Tr3wrMMfDRwIG+vq1LS0udHB2ZxSwtrYYMHsxiUecv/LFh48YN69cx32wVh1NMbGxAQAdFZKkrz1EwNDSc/+X8FatW8PT07OzscvNyWSyWhYXlq1dpr1+/nv/l/PpHCSp/36J8LUoRPFabm56ebmpq2r9/f5lMdufOnWPHjs2cOZM52q5evXrjxo1u3brZ2dnl5ubGx8cTXHqAxvBFZCQTE9QrSqjri76VlbVEIiGEVIsSMrOy7O3sCCHW1tY5OTnKsUJmZoat0hhAnZuwtLSSyWSKmyKZTRgYGCg2wUQJVlbWHA6noqKCy+VmZ2fXcxO/Hj7CfKx8fX17dO+mPMvY2FhfX/+9jgGHj/zGvCOpTNa1axcWi2VsbEzI79WKSn2ZyuNx7ezs/r+9Mw9o4mgb+GyyuQ8SIJAASeRSK1et+lYULzxRbKX1oPWqqLVvxdqKB+rXt7ZWxbtq+1Zb64W1WFtbbcW7tvpaj1YFRBFFJBDucOQmx2a/P1a2kYQQEFvB+f0Bm8lkdnaOZ5555plZkUh06vQZhUIRGBjYBosCjuMtuj0RA4aLKHfu5E+d9tfSQ/q+vRiGHfruu5EjR4wf/yoAICoqqlqlOnDgG1L0SySSiPBw+0R8RCJikm0ymz799LMhg4cIhYKoqKisrKzsnBxCUZBKA6TSAABA165dc27m5t3OI4coPp9PfGVvVSVDzGbL94cPv/5a4tDYWABASEjw7DfnXP3jj9ghQzKPHx8bH/9KQgKRz+vXb7hTdHQ6XS6XlZU1dUJUq9U2my0qMtLeg4FALBZHREQAAPr06f3RypVff31g9aqPm8Rx+oBRkZF0Ov369RtxcaOI0u7v4CvQLlWp1Wp5PN6okSOPHcv89bffhg8bduXq1Zoa1dj4+IyDB8mlBzdrwWKxEG0gMXFS08cMCCCsCIGBgW/PTc7Kyh44cIB9NjQajX177vw+Ck30bgQA3GYj9rkSC7Httb5bXFyclpZGfkxNTXWcYQgEAqL0xWLx1q1bCwoKIiMjMQy7evVqdHR0TEwMACA4OPjevXtwhIO0i0UBAJCyYAHA8f97//2/tITly5cvW9b0V4Sy23yCQqHQaDSiKGo0Gg0GPaklmEwmaYBUr9cxmUwAgK+vb0VFhdVqZbPZVVVV7msJ5C1oNBppkCCdIkktoaKiwsfHF0VRg8GAoqhWq3X/FmNGj/b29iKGmWZs+GyTyQQA0Ot0PC7XhZEgLy8vOCgYQRAajSaXy/Lu5LdBUQAAoVKpLe6tRxCESqUC0GycLl26zJqZZG9RKFEqjUajvSoQGRGRvn+/2Wyh01s43dJHJAIAqDVqYlbq5e2lUBQTX93MzT3y45ESpRIAgGGY42DcHGXlZWazOX3/118f+IYcxqqrqysrK81mc/fnurdXsw8MDOzV64V16zf07dt3xPBhzeWw5/M9v8nIIHxv7cOdPiCLxXo+KurK1atxcaNqamsrKioiIsKfRFXqdDoPgYDJZI4cMeKnn36OHTLk6JGjsbGxAoGAxWIrlaWtqoXSsrImbcARDw8PDodTW1frWLD2jf9ZOcJZp9Ot3bBWKpP6BwRUVJR7e3kDAGpqVAEBUpPJnLY+bcnCJY5nMbUKsVgcFxfn1KLgCJfLZbFYWq0WAFBfX2+xWByXLSCQdlEUAAALFizAAXj//fcBAMuXL1/mqCWQoqtx6cGpuKPRUOKYBDabRdoSpAFSDMMYDGaJUknYNomRu7y8XNI4uruPRqPmcLgMBsNkMjEYjCZOkYSWQKVS9Xo9oSvo9TqBwN11Og6HTZpYCdNIc/B4fI1Wi2GY07MTGhoaiooUFAol/+5dAIDVagEAcZ1gM+PGw11ULY4uNBoNuPBRYDGDgoKatIk2NyeURgMA2BrXMqgUKnFdUVGxYcPGfv2iX3stkYqi+9P32z2Hg5H10RAaigIApk+fZu8ZwOVya2tr7e/lPmazubi4pE+f3k3CKRRKyoIFt27fPnny5H8+WBEXN2rqlCmOP6dQKIRnun2giwccNGjgho2bVCrVjawsLpfrZGxuj6rU6fVElxk1auSxzMxdu3crS0tTFqYAADhstsFgaFUt0BpfRdSSbYaGWbEmpiA2m13cqB0+K4qCTqdbsz5NLpXJ5XKlUhkQEKBUKnEcyGTS0jJll8AuOMDT1qelLkp1rSuQmxGcFj2dTvfz83PxwybXKIrabDZi93mjaH4kGlx6gLg11ri362HBe+8ZjUYAwLKlS13EJy0KzTW/Jocp+UkkanU9k8mqr68jV0AJ2qAlADunSAaDYTQaWSyWt7eIWB6uqKgQiXwILYFGoxmNRq1W4+/v/yRKVSz2ZbPZ58792qdPb8c9IPcKCths1muvvUZ8xKzWfen77xcWhoaEIAhSVVUtFvsSF/7+fi0PGw5SwlELbNWubACAn58/g8HIvXUrKiqKCMm9dSsgwL9Fc4Iro2lJicViGT9+vJenJwBA6OlJTHUAACw2q8mJFE1CfHx86HS6skQ5bOhQ+2hMJovBYNy4kUXm000Offed0Wgc0sx7U8N69Ajr0ePI0aPffnto4oQJjptl8u7k+fv5EYoCgiA2G+76AZ9//nmxWPzrr78V3L/fu3cvx3lgu1SlwWCgM+iECjVs2NBjxzIHDhxAZIbOoOv1+lbVAlHmN3NzW7vTHkGQ6L59fzl3rqCggFCJOr+Pgk6nW712tUwmk0qlJSXFUqmssPB+SbESQRCz2RQUGKRUKuUyGY7jjuc2/j14eXnRaLR79+4FBwfDYQ/yJCwKBMuWLm05MmFRaM3duVwuaUtoF0inSAaDYTAYWCyWSORTUHA/MDAQRVHClvBEtQQAAJVKTRj38pmzv+xL348giK+vL83ORp1/Jz88LJxnJyu6d++Wn5/fvVu3F17oeeLkyZlJM8gLF3ehIAiNRmvxXCYMw2g0GqU1+2DpdNr4V1/NOHiQzWaHhoT8ee16VlbWwpQFj1MmcpmMQqEcPnx48KBBNDpdo1YjjeNlUFDQ5cuXe/R4jk6jUanUiIgIx5CXXhp7+PAPNDotPCzMasWqqqri4kbR6bSJEybs//prKkqNiowEjQ59jnfX6/S38/IwDFNVq37//ffbeXmJiZMc93qoVKqs7OwucrnNZit6UMRkMsnxOys7+8zZsyJv7xtZ2dev30hOnkuECwTCO3fylMpSFw+IIMioUSO///6wwWBYtGjhE6pKg8HAZDw82GPUqFF6vT5+zJhGjYpJWBRaVQvjxr38/feHqRTqc891t1oxFpvldK+HIxMnTsi9dWvlx6tGx8V17Rra+X0Ufs782U8iCQgIKC5RSKUyRZGiuKT43XkLcIBv2brZZsODAruUKEtkUpnZZN63f+/bb839mx+KRqMNHjz4zJkzVCqV0BX0er0AvlEX0t6KgltJ/aUutGL+2o5aAjkZqqystNlsTCZTr9dzOJyuXbviOK7T6UhbQkArbzr/nXlN+t2C995tNLc8vOBxueS1h4dHcycpER6C9oxo3Bo9aODAQQMH2l+4nLpRPDz4Op2OmJ84TjSJmtXpdB4efASh4HgrTPRjxoxmsphHjhw9fPgHiUS8MGVBz549H6dSfH195859+4cffrhw4X8IgvB5vBf7vvhwXJkwsa627tNPP2Oz2cOGDo2IiHAMeSUhgcfjHT9+4sSJkxwORyaTEb6BcXGj+Hzej0eOnjp1msFgeHoKQ4KDmtzaUyi8devWxx+vIg9c+ujDFU5nVvX19SdPnqqsrKRSqTKZbGFKCjn7Z7NZZ06fqaisFAgEb//7rX7R0UT4q68kfLnzq8zjmW/Ont3cAxIVeujQdwKBIDws7AlVZUNDA2n88PL0fHP27L8sNEwWhmEmk6lVtTDu5Ze5XO6xY5nHMjPZbHb8mDFuKgo8Hu/jlR8dOXr0ytWrxzIzEU3jjotOqSjgOJ6yOCV2SGxVdZWPj09JSUmRQjFn5psCgcBmszU0NHz2+WcBAQGBQYEqVbWXl+j48cyVK1YymSwWy8l5bRwuLyMjY+zYsY7HLWRkZJjN5mnTpjUJ37lzp5+f3+jRo5tcAwC2bNnSs2fPgY2iJDc39+LFizU1NXQ6ncvl9urVq0+fPnAIhLTI7Vu5Xbp0efx0EARBEAqKomd/+SW674utOo5eUVwsl8na/dEqKirYbA5xiBOLxTIYDISWoNNpA9pbNflHQBBKfX19WXm5WCz28PBAURRFUcIrAsMwq9VqtVrVanVFRYWfRCIQCHDcBht827A/aKHNLFu2vG90X/KUp2enKju5j4LRaOwa2rXgfkFIcMiDwkKFQpE48XUMwwiJAwCY8vqUvel7zRZLaEjIg8JCXx9f4kQOAIBTXYFOpzs1LiUmJjrNwKxZs5xeAwDmz59v/zE8PDzcpXsqBPKkLQoIgttsthZffdQEg8EQFBik1Woe57wyp4jF4rKyMmKzJemX0Gm0BACAzWYTCAUojVZXV1dVVYVhGIZhhEsEhUKhUqlUKpWYfHO5HBtmg25L/whFCgWFQvnl7C86vX5k4zlIz1RVdnIfBQzDhsYOO3Ei89TpU3KpfNxLCSwWC0VRBoNBTFA8PDymTp564vSJEydPenl5jRg6zGq1ulhnYjAYGIa5cPWCQDquooDjwGyxoCjqfoJFCkVwUDCGYUwmq/DBg6C2bBF0hZ+fX2lpKY7jbDZbr9frdNrOtD8IQQBus3E5HC6XAwivdaRx+QcBAAc48QEHuA1qCf8YO7bvKK+oCA0JWZq6pLlDxDt3VXbypQeLxaLVag0GQ0NDA7HTiclk8vl8Ho9HbDfQ6XQGg7GhwUhsbaLRaEwmi8/ncTgcR1WAy+OfPn06KirK29sbKgqQp4Tbt3LbZYaNIBQqlWIyW3Jzc8PDejR30oCjLq7T6dhsjkpV7ePj01prhJsoFAoajW42m9plkQUCgXRmi0JrodFonp6efD7fYrEQr3Sy35qCoqhAIOByuRaLFcOshIGIRqM1dwRCg9HAYDBsNrhMCOlkFgWEPGwJs1oJM6mbv6RSqXQ6XaEo8vPze0JaAgBALpeXl5dDLQECgYrCE3tIFHXhmeX620fFMeByuSqVSiQSQYsCpNNgdz4IUq1SuWlLIGGxWO6f0Ndm2nYqAwQCeeYUhTa/66Gd5m02Hx9RdnZOaGgoIUyhugB5OkZ6Spt+1rgDktjwgFCsGJaXl9ez5/NteL8RBAKBigIE2Gw2kbe3n0Ry4cIFkUgkEon4fD6VSiXeK0qhUFy8YBQCeWL6K46i1Fb+BGA2DLfZrDabDbPhOF5XX19ZWVleXu4nkXgKhbAZQyCQv+YUHcuZ8SmYuiEoSmswNVRVVdfX12s0GuLlUuTfdjz6BgJxk+Li4tY2Y1KvJTRdgUDg7+cnFvtyOBzi3TawVCEQCFQU2k6jkH3UfgBFK+QfQv/oMfttUH9Bo5MCXHSAQCBNgEsPbcFms8G9D5CnB/I0ewgEAmn/uTEsAggEAoFAIFBRgEAgEAgEAhUFCAQCgUAgUFGAQCAQCATyN4CSb0+AQCAQCAQCaQLcHgmBQCAQCKRZ4NIDBAKBQCAQqCg826Tv2QkLAVYxBAJbC6QNLQEqChAIBAKBQNpVUaitrcMwDJYdBAJxExzHCwoK4HmmkKeksbU4ilmtVoPB8PiZ0Wg0z6KiYDKZkufNe5wSNJst7ZX7u3fvLl6yZPobM3bv3gO7BwTyD+K6XxuNxv98sMJisfyDeYA8I5CNTa1WJ8+bV1Nb24ZR7OhPP2VkHHz8zHy+fcf58xc6epG2/K6HU6dOHcs8rlarPT09X0kY16dPn8e5X11d3bx35u9P3+f0W61Wu2ZN2uDBg0aMGOFOal/u/Compv/gQYPs39losVi+PXTo/PkLOI736vXCzKQkFIWvtIA807wz/12VSkWn04VCYXTfvgkJ4x7z9RBNxEJYWJiLfv334Fq2QDoW09+YYa9Wbtu21cvTs7WJcDic2NhYHpfb2h/qdLrMzONr09aYzeY3ZiRt3rTR19eX7Eozk2ZERUU16QIxMTFEhA9WfMhisVKXLCY+vvpKwidbtvTv349KpXbc6mhhBC0sLDzwTUby3LlyuayiooLD4Tzm/Ww43pxF6PKVKwcOfKPX691Mymq1lpWVDRo40MPD49E61ms0muXLl1nM5k2bP/nl3LkRw4fDjgd5llGr1cuWLZXLZJWVlbt27TYYjW9Mn9bm1BzFgot+/bfxNOQB0o6kLlksk8mI6yZC3t3hDUVfSUhoww9/++18ZESEl5eX2Wxu1chYpFAolUqLxVJZWUnoFiEhIQKB8Nr16/96vDn2U60olJeXe3l59e7dCwAgEokIow0A4P3/fFBbWyuTyeYlzyWKQ6ks3bV7V1GRIiQ4eM5bcwjtz2kgAOD1yVMAAG/NmTNw4ADyXtVV1XPmvHnixAmnOamoqPjqq12FDx5IpdKkpBkyqRTDMBzH356bDABITJz00tixREyhUPDvt94irsPDwyorK2GXg0DYLBaPx+PxeLFDY0+dOgUA2Lp12/UbN5hMZuyQIRMnTgAAVFdXb9+xo6DgPpPJ7CKXL12a6rQXO4oFwrpL9uvs7GxfX18izYyMgxqtZsrkyWROmhML9lgsllWr15SXl5tMph49esik0gv/u6DXG4YPHzb59dfdlC2ODwjpQHC5XIFA4NgkDAaDXC4nhx6njZbAZDLNeGZHWAAACBxJREFUSJq5Y/vnLBbriy93/vnnnwiCTJs6tW/fF52OYiTZ2dn2Y5M7IyPB2TNn+0VH19TWnjv3a2LiJCLwhRd6ZmVldWhFoQUfhW7dutXW1u7evae2ts4+fPbsWZs2bvDz89uzdx8xud+4aVN4ePjmTRsFQmH6vvTmAgnS9+1N37d3wIAY+zTHjo0P69HDaTYwDFu/YWOXwC5rVq+Kiopcu3Ytqeh9/t/P0vftHRsf71TW3LmT3+O5HrDLQSAP1fHq6osXL0okEgDAq6++snXLJ++8M+9YZmaRQmGz2dat3xDgH7Bxw/rk5Ll38vOb68XNiQWyX/f5V5+cmzeJwDv5+REREWQcF2LhEfOAzXb37t3ly5etX7dWp9Pl381PXZK6NDX19OkzhYWFbsqWJg8Ia79DQzSJpalLNm5YLxaLiaHHaaN15M9r1xSKog3r129Yvy4yMtLpKPaIweDBg8DAwNaOjGaz5fdLlwYMiInp3+/8hQuks2RwUFBhYWGHLvwWFAVvb+8PV6yoq69bkJKyfccOnU5HhMukUm9v79Gj4+7duwcAKCi439DQkDBunIeHx9j4eEJGOA0koFKpVCoVQRA3c1lQcF+r1SZOmuTj45MwbhydzsjJeZgahUJxmhSO41/u/Eoul/Xq9QLsYxDIRytXTp02fUHKQg6HMzMpCQDg7+/P5/N7PPdccHBQWWnpvXsFdXV1U6ZM9vb29mmcJDntxc2JBbJfPx8VpVQqa2vrzGZzUVFReFiYfV9uTiw4IhQIRCJR/37RTCZLKg3o1q1raEiIQlHspmxp8oCwDXQsVn68auas2TNnzf58+3Yy0MvLy8fHJ37MaGLocdpoHWExmRqNVqNRC4VCoVDgdBSz12UNBgOPx2vtyHjt+jUmkxEaGtqrVy+DwZCTk0NE5vP5anXH3vvQspefTCZd8N57NTU1n/33v59v3/HOvGTyKx6PRziO1tSoNBrNGzOSSAOA2Wx2Gti2XNbUqLy9vEhnEB+RqKZG5fon6fv3V1VVLbMzQ0EgzzLJc5ODgoL4fB7h22u1WtPT91+5etVisdhsNqsVU6mqfUSiJk6OTnsxnU5vIhaSkmbY/4rJZEZGRly5ckUiEfv7+5OCwkWCLnLO4XAaGozktclkcke2OD4gbAMdi3nJyTKZFADg2Dx4fD7Ropw2WkeioqLix4xJW7tOGhAwc2aSUCh0HMXsJ5nEFJT8a7Va7dsVhUp1HBkXLUy5ePFi7169EQRhMBgREeEXf7/Us2dPAABCodi723dORYHU48a9/PKmzZudfisQCj2Fwm3btrYYSGsUUq3aieDp6aWqqcEwjNAVqqqrvby8XcQ/f/5CdnbORx+ucC2AIJBnB09PoafnX/Lx998v3cm/s25tGpfLXbMmjeiw9Wo1juP29jmnvdhRLDj26xEjRuzbt697t+7Rffu2KBZaxF7M4jjujmxxfEBIx0Ig8PD29m4hjrNG65QxY0YPHz58z949X+7cuXjRIhcxaTQag8HQarVcLhdFUaFQoCwt9ff3BwBoNBq1Wi2yyxXZBXQ6XXZ2Doqily5fBgCYzSYEoZhMJgaDodPpXNsnnn5aWHq4d+/epcuXKysrlcrSX3/9zU/i5zRat65dAYJ8++0hlUpVWVlZXl7eXCCXy2WxWJcvX66qqqqurnYzl6GhITweL+Pgwaqqqh+PHDGbTZGREc3LFPzgtweTkmbQaDSz2fykt25DIB0RYgHVYrWSs6WQ4GAcx388cqS+vv7W7dsuurajWHDs1+FhYQiCnL9wIbpfNDEpRBDkwYMipwm2Fndki+MDQjoWOp2uvpHmTshw2mjJxkZGq66uLi8vx3Gbv5+/0WBs8dZyuVxRXExc9+/fPyPjYE5OTmFh4fYdXwQHB4vFYscucPWPPzw8+Bs2rF+zZvWaNavT1qzBcfza9esAgKIHRXK5vDNbFPR6/c8/HystLaVSqaGhocnJc52ngqKpSxbv2bP3xMmTNBotYdw4iUTiNJBCoUyZPHn/1wesVuukSROHDxvmTi6pVOqihSlffbUrdekymUy2ePFiOp1O7L9wpKampq6uftWq1cRHb2/vrVs+gb0OArGnf//+N2/eXLhwEYZhHnw+n89jMBjvzp+/e/fuo0d/kkgkLBarua7tKBac9uvBgwZfu3aN2I+Aoujo0XE7vvhi86aNjgm2Wmy5IVsGDRzU5AFhpXcs0tauI6+TkmYMiIlxjNNcoyUaW9qah6PA/cLCXbt2G41GiUQ8ffr0Fm8dERGek5PT98UXAQATxo+3Wq3bPv3MYjGHh4e/9+58pyPjnj17Bw8abL+Fp1+/6EuXLvWLjs7JyYlxlvkOBHzN9DNB+p6dU9+YBcsBVrFrysrK+Hw+hmFnzpx9UPRgYUpK29IxGAxGo3Hjps2TJk6IioqCtQMFwpOjvRrtI7PN2tolS1I/2byJ2/rDmppQXl7+wYoPP9229elcB3ezJcAjCyEQCAAA4Di+fccXxcUKFKV169YtacYbbU7qgxUfqtXq+Pgx7mgJJpOJOA2FhMVifrptG6wRyN/ZaO3x8vSMiYn5/vAP06dNfcykDnzzzdj4+I7uLQcVBQgEAgAACIJ89OGKdklq/bq17kem0+nrHo1PQeBbbSF/d6NtQuKkiVqt9vHTmTRxkkQi7vDlDJceIBAIBAKBNAfU3CEQCAQCgTQLMnToAICTAPI/aPwHcICDhxuZyYuH13/9awUmE9yy2DlJSpoFAAgICIBFAYFAIJ2G/wcpUsu1mwKraAAAAABJRU5ErkJggg==;" parent="1" vertex="1">
                    <mxGeometry x="50" y="262" width="696" height="288" as="geometry"/>
                </mxCell>
                <mxCell id="26jdtZVYwPwEmjw786Ll-3" value="" style="rounded=0;whiteSpace=wrap;html=1;snapToPoint=1;points=[[0.1,0],[0.2,0],[0.3,0],[0.4,0],[0.5,0],[0.6,0],[0.7,0],[0.8,0],[0.9,0],[0,0.1],[0,0.3],[0,0.5],[0,0.7],[0,0.9],[0.1,1],[0.2,1],[0.3,1],[0.4,1],[0.5,1],[0.6,1],[0.7,1],[0.8,1],[0.9,1],[1,0.1],[1,0.3],[1,0.5],[1,0.7],[1,0.9]];strokeWidth=3;strokeColor=#B20000;fontColor=#ffffff;fillColor=none;" parent="1" vertex="1">
                    <mxGeometry x="70" y="50" width="60" height="20" as="geometry"/>
                </mxCell>
                <mxCell id="26jdtZVYwPwEmjw786Ll-4" value="" style="rounded=0;whiteSpace=wrap;html=1;snapToPoint=1;points=[[0.1,0],[0.2,0],[0.3,0],[0.4,0],[0.5,0],[0.6,0],[0.7,0],[0.8,0],[0.9,0],[0,0.1],[0,0.3],[0,0.5],[0,0.7],[0,0.9],[0.1,1],[0.2,1],[0.3,1],[0.4,1],[0.5,1],[0.6,1],[0.7,1],[0.8,1],[0.9,1],[1,0.1],[1,0.3],[1,0.5],[1,0.7],[1,0.9]];strokeWidth=3;strokeColor=#2D7600;fontColor=#ffffff;fillColor=none;" parent="1" vertex="1">
                    <mxGeometry x="180" y="50" width="100" height="20" as="geometry"/>
                </mxCell>
                <mxCell id="26jdtZVYwPwEmjw786Ll-7" style="edgeStyle=orthogonalEdgeStyle;rounded=0;orthogonalLoop=1;jettySize=auto;html=1;entryX=0;entryY=0.5;entryDx=0;entryDy=0;strokeWidth=3;fillColor=#e51400;strokeColor=#B20000;" parent="1" source="26jdtZVYwPwEmjw786Ll-5" target="26jdtZVYwPwEmjw786Ll-3" edge="1">
                    <mxGeometry relative="1" as="geometry">
                        <Array as="points">
                            <mxPoint x="30" y="340"/>
                            <mxPoint x="30" y="130"/>
                        </Array>
                    </mxGeometry>
                </mxCell>
                <mxCell id="26jdtZVYwPwEmjw786Ll-5" value="" style="rounded=0;whiteSpace=wrap;html=1;snapToPoint=1;points=[[0.1,0],[0.2,0],[0.3,0],[0.4,0],[0.5,0],[0.6,0],[0.7,0],[0.8,0],[0.9,0],[0,0.1],[0,0.3],[0,0.5],[0,0.7],[0,0.9],[0.1,1],[0.2,1],[0.3,1],[0.4,1],[0.5,1],[0.6,1],[0.7,1],[0.8,1],[0.9,1],[1,0.1],[1,0.3],[1,0.5],[1,0.7],[1,0.9]];strokeWidth=3;strokeColor=#B20000;fontColor=#ffffff;fillColor=none;" parent="1" vertex="1">
                    <mxGeometry x="90" y="330" width="60" height="20" as="geometry"/>
                </mxCell>
                <mxCell id="26jdtZVYwPwEmjw786Ll-8" style="edgeStyle=orthogonalEdgeStyle;rounded=0;orthogonalLoop=1;jettySize=auto;html=1;entryX=1;entryY=0.5;entryDx=0;entryDy=0;strokeWidth=3;fillColor=#60a917;strokeColor=#2D7600;" parent="1" source="26jdtZVYwPwEmjw786Ll-6" target="26jdtZVYwPwEmjw786Ll-4" edge="1">
                    <mxGeometry relative="1" as="geometry">
                        <Array as="points">
                            <mxPoint x="610" y="240"/>
                            <mxPoint x="280" y="240"/>
                        </Array>
                    </mxGeometry>
                </mxCell>
                <mxCell id="26jdtZVYwPwEmjw786Ll-6" value="" style="rounded=0;whiteSpace=wrap;html=1;snapToPoint=1;points=[[0.1,0],[0.2,0],[0.3,0],[0.4,0],[0.5,0],[0.6,0],[0.7,0],[0.8,0],[0.9,0],[0,0.1],[0,0.3],[0,0.5],[0,0.7],[0,0.9],[0.1,1],[0.2,1],[0.3,1],[0.4,1],[0.5,1],[0.6,1],[0.7,1],[0.8,1],[0.9,1],[1,0.1],[1,0.3],[1,0.5],[1,0.7],[1,0.9]];strokeWidth=3;strokeColor=#2D7600;fontColor=#ffffff;fillColor=none;" parent="1" vertex="1">
                    <mxGeometry x="560" y="330" width="100" height="20" as="geometry"/>
                </mxCell>
            </root>
        </mxGraphModel>
    </diagram>
</mxfile>
